<?xml version="1.0" encoding="UTF-8"?>
<svg id="Layer_1" xmlns="http://www.w3.org/2000/svg" version="1.1" viewBox="0 0 1079.8 1080">
  <!-- Generator: Adobe Illustrator 29.7.1, SVG Export Plug-In . SVG Version: 2.1.1 Build 8)  -->
  <defs>
    <style>
      .st0 {
        fill: #fff;
      }
    </style>
  </defs>
  <path class="st0" d="M243,468c0-50.5-.3-100.5.1-150.5.2-24.4,11.3-43.9,30.7-58.5,14.5-10.9,31-15.1,49.1-15.1,146.6.1,293.3,0,439.9.2,15.8,0,30,5.6,42.6,15,14.2,10.7,24.1,24.4,28.4,41.8,1.5,5.9,2.9,12.1,2.9,18.2.2,148,.3,295.9,0,443.9,0,19.2-7.3,36.2-20.7,50.4-11,11.7-24.1,19.4-39.8,22.8-4,.8-8,1.7-12,1.7-149.3,0-298.6.1-447.9,0-16.2,0-30.6-5.8-43.5-15.5-16.9-12.7-26-30.1-29.9-50.6-.3-1.4,0-3,0-4.5,0-99.6,0-199.3,0-299.4M814,354.5c0-10.5,0-21,0-31.5,0-18.4-6.9-33.4-21.3-44.8-9.2-7.3-19.7-11.3-31.7-11.3-147.6,0-295.3,0-442.9,0-2.7,0-5.5.5-8.2,1-25.7,4.4-44.7,27.5-44.7,53.6-.1,144.3,0,288.6-.1,432.9,0,16.5,3.7,31.3,15.6,43.7,9.7,10.1,21.1,16.7,35.1,16.7,148.6.2,297.3.1,445.9,0,2.9,0,5.8-.5,8.7-1,25-4,43.7-27.6,43.7-52.6,0-135.3,0-270.6,0-406.9Z"/>
  <path class="st0" d="M694,928c0,25.6,0,50.8,0,75.9,0,6.1-3.2,11.3-7.5,13.1-7.4,3.1-15.6-3-15.6-11.1.3-27.5,0-55,0-82.4s0-16.7,0-25c0-8.5,4-13.4,11.2-13.5,6.9-.1,11.7,5.4,11.8,13.5,0,9.7,0,19.3,0,29.5Z"/>
  <path class="st0" d="M904,695c-4.1-.3-7.7-.4-11.2-1-6-1.2-9.4-5.9-8.9-11.7.5-5.7,5.1-10,11-10.2,1.7,0,3.3,0,5,0,34.3,0,68.6,0,102.9,0,9.2,0,14.4,4.3,14.1,11.7-.3,6.6-6.5,11.3-14.5,11.3-29.6,0-59.3,0-88.9,0h-9.5Z"/>
  <path class="st0" d="M898.2,600c-11.4-.7-16.6-7.2-13.2-16.2,1.5-4.1,4.4-6.8,9.1-6.8,37.1,0,74.3,0,111.4,0,6.2,0,10.9,4.7,11.4,10.9.4,4.8-3.8,10-9.1,11-3,.6-6.1,1-9.2,1-33.3,0-66.6,0-100.4,0Z"/>
  <path class="st0" d="M599,914c0,29.8.2,59.1-.2,88.4,0,4-1.7,8.6-4,11.9-3,4.2-7.9,4.5-12.7,2.2-4.3-2.1-6.1-5.7-6.1-10.2,0-37,0-73.9,0-110.9,0-1.9.8-4.2,1.9-5.8,3.1-4,7.1-5.8,12.4-3.9,6.9,2.5,7.7,5.2,8.5,12.2.5,5.1.1,10.3.1,16Z"/>
  <path class="st0" d="M481,916c0-6.8,0-13.1,0-19.5,0-6.4,4-11,10.1-11.5,5.8-.5,11,3.5,11.9,9.5.5,3.4,1,6.8,1,10.2,0,32.4,0,64.9,0,97.3,0,3-.6,6.1-1.6,9-1.4,4.3-7.4,7.7-11.3,6.9-6.5-1.2-10-5.2-10.1-11.1,0-30.1,0-60.2,0-90.9Z"/>
  <path class="st0" d="M958,505c-20,0-39.4,0-58.9,0-4.3,0-8.6-.4-11.9-4.2-3.4-3.9-4.1-8.1-2.1-12.5,1.9-4.1,5.1-6.4,10.1-6.3,36.9.1,73.9,0,110.8,0,6,0,10.3,4.2,11,10.7.5,4.7-3.7,10.3-8.9,11.3-3,.6-6.1,1-9.2,1-13.5.1-27,0-40.9,0Z"/>
  <path class="st0" d="M106,577c25.5,0,50.4,0,75.4,0,8.9,0,13.2,3.7,13.7,11,.5,7.2-4.1,11.7-13.8,11.9-10,.3-20,0-30,0-24.3,0-48.6,0-72.9,0-2.1,0-4.2-.4-6.2-.9-7.9-1.9-10.5-5.5-9.1-13.3.8-4.5,3.5-8.9,12-8.8,10.2.2,20.3,0,31,0Z"/>
  <path class="st0" d="M587.9,196c-7.8-.1-11.9-4.2-11.9-11.6,0-35.8.2-71.6-.1-107.4,0-8.9,4.9-12.7,10.4-13,9-.6,11.6,4.5,12.7,12.6.4,2.8,0,5.7,0,8.5,0,32.1,0,64.3-.1,96.4,0,3.6-.9,7.6-2.7,10.5-1.4,2.1-5.1,2.8-8.2,4.1Z"/>
  <path class="st0" d="M694,181.7c-.8,10.7-4.4,15-12.9,14.3-5.6-.4-10.1-5.1-10.1-11.1,0-25.1,0-50.3,0-75.4s0-23,0-34.5c0-5.9,4-10.6,9.1-11.1,7.7-.7,11.3,1.7,12.8,8.7.5,2.5,1,5.1,1,7.7,0,33.6,0,67.3,0,101.4Z"/>
  <path class="st0" d="M132,672c17.6,0,34.8,0,51.9,0,5.5,0,10.6,4.2,11.1,9,.8,7.6-1.7,11.6-8.6,12.9-2.7.5-5.4,1-8.2,1-33,0-65.9,0-98.9,0-2.6,0-5.2-.4-7.7-1-7-1.5-9.4-5.1-8.7-12.8.5-5.2,5.2-9.2,11.1-9.2,19.1,0,38.3,0,57.9,0Z"/>
  <path class="st0" d="M86,505c-5.4-.3-10.3-.3-15.2-1.1-6.1-1-8.5-5.6-7.9-13.6.4-4.2,4.9-8.3,9.8-8.3,37.5,0,74.9,0,112.4,0,4.8,0,9.6,4.9,9.8,9.7.4,7.3-2.6,11.5-8.9,12.2-4.5.5-9.1,1-13.7,1-28.6,0-57.3,0-86.4,0Z"/>
  <path class="st0" d="M481,106c0-10.5,0-20.5,0-30.5,0-6.4,3.6-11.2,8.6-11.5,8.9-.6,12.1,1.6,13.4,9.6.5,3.2,1,6.5,1,9.7,0,30.8,0,61.6,0,92.4,0,3.9-.5,7.8-1,11.7-.7,6-5.2,9-12.4,8.6-4.8-.3-9.5-5.2-9.5-10.1,0-13.8,0-27.6,0-41.5v-38.5Z"/>
  <path class="st0" d="M408,127c0,19.8,0,39.2,0,58.5,0,6.8-3.7,10.4-10.6,10.5-6.9,0-11.3-3.9-11.4-10.4,0-37,0-74,0-111,0-7.2,4-10.7,12-10.6,6.6,0,10,3.7,10,10.5,0,17.3,0,34.7,0,52.5Z"/>
  <path class="st0" d="M406.8,1012.4c-5.8,6-8.9,6.9-14.8,4.1-3.7-1.7-6.1-4.5-6.1-9.1,0-37.3,0-74.5,0-111.8,0-6,4.8-10.6,10.9-10.6,6.1,0,11,4.6,11,10.5,0,37.3,0,74.5,0,111.8,0,1.6-.6,3.1-1.1,5.1Z"/>
  <path class="st0" d="M1004.7,409c-36.6,0-72.8,0-108.9,0-7,0-11.7-4.3-11.8-10.8-.1-6.7,4.6-11.2,11.9-11.2,36.5,0,73,.2,109.5-.2,6.8,0,11.2,5.2,11.6,11.7.3,5.8-5.1,10.4-12.2,10.4Z"/>
  <path class="st0" d="M131,387c17.8,0,35.2,0,52.5,0,4.7,0,8.6,1.2,10.6,6,2,4.9,1.3,9.5-2,13.2-1.6,1.7-4.9,2.7-7.4,2.7-36.8.2-73.7.1-110.5.1-7.8,0-11.1-3.2-11.1-10.9,0-7.4,3.8-11.1,11.5-11.1,18.7,0,37.3,0,56.5,0Z"/>
  <path class="st0" d="M764.3,338.8c4.8,9.5,6.7,19.2,6.7,29.4,0,116.2,0,232.3,0,348.5,0,26.7-17.9,48.5-43.5,54.3-3.2.7-6.5,1-9.7,1-118.7,0-237.3.1-356,0-24.7,0-45.5-17.3-51.6-41.5-1.5-5.9-2-12.3-2-18.4-.1-114.3-.1-228.7,0-343,0-17.2,5-32.7,18.1-44.6,9.9-9,21.6-14.3,35.1-14.3,118.5,0,237-.1,355.5,0,19.4,0,34.1,9.2,45.2,24.7.8,1.2,1.4,2.5,2.3,4M748,538.5c0-58.3.2-116.7-.1-175,0-15.8-14-30.5-30.5-30.5-118,0-236,0-354-.1-17.3,0-32.4,15.1-32.4,32.7,0,117,0,234,.2,351,0,5.6,2.2,11.8,5,16.8,7.1,12.8,19.3,16.6,33.1,16.6,107.3,0,214.7,0,322,0,9.1,0,18.2-.5,27.2-1,16.6-.9,29.5-15.6,29.5-31.5,0-59.3,0-118.7,0-179Z"/>
  <path class="st0" d="M465.9,539.8c3.6-12,7.3-23.7,10.8-35.3,5.5-18.3,10.9-36.5,16.3-54.9,2.6-8.8,12.8-13.8,22.8-11.4,7.8,1.9,11.5,6.2,13.5,14.2,3.9,15.4,9.3,30.3,14,45.5,10.8,35.1,21.5,70.2,32.2,105.3,1.6,5.3-.9,9.9-7.6,12.2-3.6,1.2-7.8,1.9-11.4,1.4-2.3-.3-5.4-3-6.2-5.2-3.6-11.3-6.6-22.7-9.9-34.3h-59c-3.2,10.9-6.5,21.9-9.5,33-1.3,4.9-4.2,7.3-9.1,6.8-3-.3-6.3-.4-9-1.7-6.8-3.3-9.9-5.5-6.9-15,6.3-20,12.6-40,19-60.5M522,514.3c-3.5-12.5-7.1-25-10.6-37.5-.4,0-.7,0-1.1.1-7.7,26.3-15.3,52.6-22.9,78.6h46.9c-4-13.9-7.9-27.2-12.3-41.3Z"/>
  <path class="st0" d="M594,589c0-45.9,0-91.4,0-136.8,0-9.2,3.1-12.2,12.4-12.2,1.8,0,3.7,0,5.5,0,5.3.1,9.1,4,9.1,9.4,0,52.8,0,105.5,0,158.3,0,4.7-4.3,8.9-9.8,9.3-9.1.6-18.4-1-17.2-15,.3-4.1,0-8.3,0-13Z"/>
</svg>