<?xml version="1.0" encoding="UTF-8"?>
<svg id="Layer_1" xmlns="http://www.w3.org/2000/svg" version="1.1" viewBox="0 0 1079.9 1080">
  <!-- Generator: Adobe Illustrator 29.7.1, SVG Export Plug-In . SVG Version: 2.1.1 Build 8)  -->
  <defs>
    <style>
      .st0 {
        fill: #fff;
      }
    </style>
  </defs>
  <path class="st0" d="M758,116c18.8,11.3,37.5,22.1,55.4,34.1,12.4,8.3,24.1,17.7,35.4,27.4,12.4,10.7,24.1,22.1,35.8,33.6,17.6,17.4,32.8,36.8,47,57,15.6,22,28.9,45.4,40.4,69.7,11.7,24.7,21.1,50.3,28,76.7,4,15.4,7.3,31.1,10,46.8,2.4,14.1,3.9,28.4,5,42.7,1.2,15.6,2.3,31.3,1.9,47-.4,17.5-1.6,35.1-4,52.5-4.4,32.6-11.5,64.7-22.9,95.7-6,16.2-13,32.1-20,47.9-10.6,23.9-24.4,46-39.2,67.4-8.2,11.7-17.2,22.9-26.5,33.7-10.5,12.3-21.1,24.5-32.8,35.7-17.1,16.4-35.2,31.6-54.5,45.3-19.9,14.1-40.4,27.1-62.3,37.8-16.4,8-33.1,15.7-50.3,21.8-19.9,7.1-40.4,12.7-60.9,18-12.2,3.1-24.8,4.8-37.4,6.2-16.4,1.9-33,2.9-49.5,4.1-9.4.6-18.9,1.4-28.2.9-15.4-.8-30.8-2-46-4-17.8-2.4-35.6-5.2-53.1-9-26.4-5.7-51.9-14.4-76.7-25-28.2-12-55.1-26.4-80.2-43.9-14.2-9.9-28.2-20.4-41.2-31.7-15.2-13.2-30.1-27.1-43.8-41.8-20.1-21.7-38.3-45-53.1-70.6-8.7-15-17.6-30-25.2-45.6-14.4-29.5-25.4-60.3-32.7-92.3-3.4-14.9-6.6-30-8.9-45.1-1.8-11.6-2.6-23.5-3.1-35.2-.7-17.1-1.4-34.2-.9-51.2.4-14.9,1.8-29.8,4-44.5,2.7-18.4,5.2-36.9,10.2-54.8,6.4-23,14.4-45.5,22.9-67.8,5.3-14,12.2-27.6,19.3-40.9,12-22.5,26-43.8,41.6-64,14.7-19.1,30.7-37,47.9-53.7,18.8-18.2,38.8-35.1,60.7-49.4,17.8-11.6,35.8-23,54.6-32.6,29.2-14.8,59.6-27,91.6-34.6,16.5-3.9,32.9-8,49.6-10.8,14-2.3,28.3-3.4,42.5-4.1,17.9-.9,35.8-1.4,53.7-.9,13.5.3,27,2.5,40.5,3.8,21.1,2.1,41.9,6.1,62.2,12.2,19,5.7,37.9,12,56.4,19,12.6,4.7,24.5,11.1,37.2,16.8M144,759.4c4,6.6,8,13.2,12,19.8,14.7,24,31.7,46.5,50.9,67,18.7,20,38.7,38.6,60.7,55,19.3,14.4,39.4,27.5,60.7,38.7,11.8,6.2,23.8,12.2,36.2,16.9,19.9,7.6,39.9,15.3,60.4,20.8,19.6,5.2,39.9,8.2,60,11.2,14.9,2.2,30,3.6,45,3.9,15.1.3,30.4-.7,45.5-1.9,13.5-1.1,27-2.5,40.2-5,17.9-3.4,35.7-7.1,53.2-12.1,15.5-4.5,30.6-10.6,45.6-16.6,23.5-9.3,46-20.8,67-35.1,16.8-11.5,33.4-23.4,49.2-36.4,13.4-11,26-23.3,37.9-35.9,11.8-12.4,23.2-25.4,33.2-39.3,12.7-17.6,24.3-36,35.2-54.8,7.8-13.4,14.3-27.7,20.1-42.2,7.1-17.8,13.8-36,18.8-54.5,5-18.3,8.3-37.2,11.1-56,2.6-17.6,4.3-35.4,4.9-53.2.5-15.1-.8-30.4-1.9-45.5-.8-11.2-1.9-22.5-4-33.5-3.9-20.2-7.6-40.6-13.4-60.4-9.8-33.3-23.8-65-41.3-95.2-16.5-28.5-35.7-54.9-57.8-79.1-17-18.7-35.4-36.2-55.5-51.6-21.9-16.8-45-31.8-69.4-44.7-21.1-11.1-42.9-20.4-65.5-27.9-27-9-54.4-16-82.8-19-14.2-1.5-28.3-3.4-42.5-3.8-16.2-.5-32.5.3-48.7.9-9.2.3-18.4.6-27.5,2.1-15.6,2.5-31.2,5.5-46.6,8.9-28.4,6.3-55.9,15.8-82.2,28.1-24.2,11.3-47.6,24.2-69.6,39.7-20.7,14.6-40.4,30.5-58.5,48.1-7.2,7-14.1,14.4-20.9,21.9-6.6,7.3-13.4,14.5-19.2,22.3-14.4,19.2-28.2,38.8-39.6,60.1-11.8,21.8-22.5,44-30.8,67.4-7.8,22-13.8,44.4-18.3,67.4-3.9,19.9-6.8,39.9-7.4,60-.7,22.6.6,45.4,1.9,68,.8,13.3,2.1,26.7,5.1,39.7,5.1,22,11.2,43.9,17.9,65.5,7.6,24.2,18.1,47.3,30.9,70.1Z"/>
  <path class="st0" d="M397.3,176.3c23.7-9,47.4-16.5,72.2-20.2,13.4-2,26.8-4.1,40.2-4.9,18-1,36.2-1.9,54.2-.9,16.7.9,33.2,4.2,49.7,6.6,20.3,2.9,39.7,9.1,59,16,24,8.5,46.7,19.6,68.6,32.7,18.1,10.8,35.4,22.8,51.2,36.7,14.6,13,28.6,26.8,41.5,41.5,12.6,14.4,24.1,29.8,34.7,45.7,15.5,23.1,28.2,47.9,37.3,74.4,5.8,17,11.1,34.2,15.6,51.5,2.8,10.6,3.8,21.7,5.5,32.6,3.3,20.9,4.8,42,3.8,63-.9,18.4-3.5,36.7-5.8,55-3,23.6-9.7,46.2-17.8,68.5-7.5,20.9-17,40.8-27.9,60.2-11.3,20.1-24.5,38.8-39.1,56.5-10.3,12.4-21.3,24.6-33.4,35.3-16.5,14.5-33.7,28.2-51.7,40.7-20.7,14.4-43.2,25.9-66.7,35.4-25,10.1-50.5,18.1-77.1,22.5-12.2,2-24.4,3.9-36.7,4.9-14.1,1.2-28.3,2.3-42.5,1.9-14.9-.4-29.7-2.3-44.5-3.8-27.4-2.7-53.8-10-79.7-19-21.5-7.5-42-17-61.5-28.5-15.5-9.2-30.6-19.3-45-30-11.3-8.4-21.5-18.2-32-27.7-19.6-17.9-36.3-38.3-51.5-60.1-13-18.7-24.3-38.3-33.8-59-12-26.2-21.3-53.3-26.9-81.6-2.6-13.2-4.1-26.6-6.1-39.9-3.4-21.9-2.8-44.1-1.6-66,1.1-20,5.1-39.9,8.6-59.7,5.1-28.3,15.2-55,27.2-81,12.1-26.3,27.3-50.7,44.8-73.8,13.7-18.1,29.3-34.6,46-49.8,19.4-17.7,40.1-34.1,63.3-46.7,18-9.8,36.6-18.5,55-27.7.8-.4,1.8-.6,3.1-1.1M836,325.7c-.8-.9-1.7-1.6-2.4-2.6-13.9-18.8-29.3-36.1-46.6-51.8-15.5-14-31.9-26.7-49.3-38.2-24.2-15.9-50-28.4-77.2-38-21.4-7.5-43.4-13.4-66-16.1-10.7-1.3-21.3-3.6-32-3.8-26.2-.5-52.5-1.4-78.5,3.8-14.2,2.9-28.6,5.3-42.5,9.1-33,9.1-64.1,22.7-93.2,40.8-23.1,14.3-44.6,30.6-63.6,50-5.8,5.8-11.9,11.3-17.3,17.5-7,7.9-14.1,15.9-20.1,24.6-9.3,13.3-18.5,26.8-26.4,41-8.1,14.6-15.1,29.8-21.7,45.1-7.8,18.5-13.9,37.7-17.3,57.5-3,17.4-6.7,34.9-7.4,52.5-.9,21.3.4,42.7,1.8,64,.9,12.7,3.3,25.4,5.9,37.9,6,28.9,15.6,56.7,29.1,82.9,8.7,16.8,19,32.9,29.2,48.8,10.8,16.8,24.1,31.7,38,46.1,6,6.2,12.3,12.1,18.7,17.7,6.5,5.7,13,11.5,20.1,16.3,15.3,10.4,30.8,20.5,46.5,30.3,18.5,11.5,38.7,19.6,59.2,26.5,21.7,7.3,43.9,13.1,66.8,15.3,14,1.3,28,3.4,42,3.8,13.5.3,27.1-.6,40.5-1.9,13.7-1.3,27.4-3.6,40.9-5.9,26.3-4.4,51.3-13.1,75.5-24,21-9.5,41.1-20.6,60-34.1,16.3-11.6,32.1-23.7,45.9-38.2,10.2-10.6,19.9-21.5,29.6-32.5,14.3-16.4,26.1-34.6,36.4-53.6,17.5-32.4,30.5-66.4,37.7-102.8,4.1-20.7,6.2-41.6,7.5-62.5.6-9.2-.1-18.5-.9-27.7-1.3-15.4-2.3-31-5.2-46.2-3.4-18.3-7.8-36.5-13.4-54.3-6.8-21.6-16.1-42.3-27.7-61.8-7.1-11.9-15-23.3-22.6-35.6Z"/>
  <path class="st0" d="M428,461.3c10.1-19.6,20.1-38.8,30.3-58,13.8-26,27.8-51.9,41.6-77.8,4-7.5,9-13.7,17.2-17.1,9.3-3.9,23.5-.2,28.8,8.5,6.3,10.3,12,20.9,17.8,31.5,15.2,27.8,30.2,55.6,45.3,83.5,3.3,6.1,6.4,12.3,10.7,18.2,2.1-11.9,4.2-23.7,6.4-35.5.8-4.1,1.5-8.4,3.3-12,2.8-5.3,9.2-6.6,15-4.7,7.1,2.3,8.5,9.7,7.5,15.7-2.5,14.5-5.2,29-7.8,43.4-2.3,12.2-4.4,24.5-7.1,36.6-1.5,6.5-8.5,9.9-14.8,7.6-23-8.4-46-16.9-69-25.3-4.9-1.8-8.6-9.4-6-16,2.5-6.3,9.2-9.3,16.2-6.9,11.1,3.9,22.2,8,34,12.3-.5-1.7-.6-3.1-1.3-4.3-6.6-12.3-13.3-24.6-20-36.9-14.6-26.8-29.3-53.6-43.8-80.5-1.5-2.8-2.6-5.9-4.2-8.7-1.4-2.4-2.9-2.8-4.5.2-8.7,16.6-17.6,33.2-26.5,49.8-14,26.4-28,52.8-42.1,79.2-1.7,3.1-3.6,6.1-5.6,9-3.5,5-10.5,6.6-15.9,3.8-4.7-2.4-7.4-9.9-5.5-15.6Z"/>
  <path class="st0" d="M652.2,725h-58.4c7.4,6,15.6,12.3,23.3,19.1,5,4.3,10,8.9,13.7,14.3,2.9,4.3.4,10.8-3.2,13.4-4.9,3.5-11.4,4-15.6.6-11.4-9.2-22.7-18.6-34-28-9.2-7.6-18.3-15.2-27.7-22.6-9.8-7.7-7.3-16.8.8-23.5,8.4-7,16.8-14.1,25.1-21.1,9-7.6,17.8-15.5,26.9-22.8,5.3-4.3,14.1-2.3,18.1,3.4,3.7,5.3,1.7,13-3.8,17.5-7.9,6.4-15.4,13.2-23.1,19.9-1.3,1.1-2.6,2.3-4.3,3.8,2,0,3.6,0,5.2,0,39.7.3,79.5.6,119.2,1,7.8,0,15.5.7,23.3.9,1.3,0,2.7-.8,4-1.2-.5-1.3-.7-2.8-1.4-3.9-19.9-30.7-39.9-61.3-59.8-91.9-7.8-12-15.5-24.1-23.2-36.2-3.4-5.4-3.1-12.2.8-16.3,3.4-3.6,11.6-5.4,16.6-1.5,2,1.5,3.8,3.5,5.2,5.6,13.9,21.3,27.6,42.7,41.4,64.1,13.5,20.8,27.2,41.5,40.3,62.5,6.4,10.2,7.1,21.6,1.4,32.5-3.5,6.7-10.4,9.5-17.3,10.1-9.1.8-18.3.2-27.5.2-1.2,0-2.3,0-3.5,0-20.7,0-41.3,0-62.5,0Z"/>
  <path class="st0" d="M423,577.1c-.3-2-.6-3.6-1.2-6.7-28.8,42.5-56.8,83.6-85.2,125.4,2.5.5,4.3,1.1,6,1.1,47.1.4,94.1.7,141.2,1.1,5.4,0,10.9,0,16.2,1.1,5,1,8.8,7.8,8,12.6-1.1,6.6-6.1,11.2-12,11.2-25,0-50,.1-75,0-26.7-.2-53.5-.5-80.2-1.1-10.5-.2-20.1-3.6-25.7-13.2-6-10.3-3.4-20.6,2.6-29.7,16.9-25.7,34.3-51.1,51.6-76.6,8.9-13.1,18-26,26.9-39.1.8-1.2,1.4-2.5,2.5-4.6-3.1.7-5.4,1.1-7.6,1.8-11.6,3.6-23.2,7.3-34.9,10.9-6,1.9-12.6-1.5-14.8-7.6-2.5-7,.4-13.7,7.2-15.9,25.8-8.2,51.6-16.4,77.5-24.4,9.2-2.8,16.2,2.7,17.1,12.1,1.2,12.1,3.3,24.1,4.8,36.2,1.2,9.7,1.9,19.5,3.2,29.2.6,4.8.6,9.1-2.7,13-3.4,4.1-8,4.5-12.5,3.6-4.7-1-8-4.4-8.8-9.3-1.2-7.5-2.1-15.1-3.1-22.7-.4-2.7-.7-5.5-1-8.7Z"/>
</svg>