<?xml version="1.0" encoding="UTF-8"?><svg id="a" xmlns="http://www.w3.org/2000/svg" viewBox="0 0 353.82 368.85"><path d="M140.59,90.55c1.55-.32,2.89-.18,4.21.74l36.52,26.47c35.79-.09,84.69,24.46,66.81,67.38,14.37,13.1,22.08,29.24,13.53,48.28-5.33,11.86-16.16,19.22-27.01,25.49-.12,4.2-.27,8.46-.15,12.66.14,4.95,2.51,17.96-.06,21.63s-6.1,1.18-9-.57c-7.59-4.58-28.47-23.15-34.37-24.88-3.17-.93-9.25-.59-13.05-1.2-32.96-5.3-70.26-27.92-53.17-66.28-18.91-14.68-23.94-38.46-8.04-57.71,3.93-4.76,9.15-8.6,14.29-11.96,1.84-1.21,6.83-2.83,7.34-4.72l-1.42-30.6c.04-2.24,1.27-4.25,3.57-4.73ZM147.54,106.92c.74,8.21,1.89,17.16.93,25.31-1.22,2.85-8.7,5.28-11.66,7.09-20.12,12.32-26.78,33.72-7.67,50.87,19.83,17.81,55.79,20.3,80.08,11.79,50.39-17.64,37.47-61.92-9.78-71.59-6.72-1.38-12.97-.92-19.21-1.79-5.19-.73-23.54-16.08-29.47-20.03-1.04-.69-1.86-1.84-3.22-1.65ZM224.78,278.66c-.47-8.28-1.61-17.15-.93-25.31,1.13-2.63,11.16-6.66,14.37-8.88,19.82-13.72,22.61-34.69,3.43-50.54l-11.06,9.16c-22.01,14.94-53.73,17.44-78.93,10.34-6.32-1.78-12.07-4.88-18.33-6.74-9.85,24.08,13.26,40.9,33.72,46.85,9.14,2.66,18.14,3.19,27.55,3.95l30.2,21.17Z" style="fill:#fff;"/><path d="M39.53,304.93c-24.65-16.44-17.54-55.71,10.92-63.72,39.2-11.04,63.96,39.78,31.85,64.08,17.67,7.78,32.29,22.57,37.12,41.62,1.6,6.33,5.44,21.17-4.47,21.04-35-2.24-73.47,2.86-108.06,0-8.63-.71-7.06-7.6-6.14-14.45,2.21-16.41,12.8-32.68,26.56-41.69,3.94-2.58,8.59-4.19,12.23-6.88ZM57.35,250.36c-32.56,4.24-27.62,53.6,5.05,51.54,34.77-2.19,29.9-56.09-5.05-51.54ZM110.78,357.42c-8.05-59.49-92.25-59.82-99.75,0h99.75Z" style="fill:#fff;"/><path d="M314.04,304.93c3.64,2.69,8.29,4.3,12.23,6.88,15.17,9.93,28.58,31.91,27.49,50.44-.25,4.21-3.45,5.39-7.07,5.69-34.57,2.89-73.08-2.25-108.06,0-9.88.16-6.1-14.75-4.47-21.04,5-19.36,19.31-33.51,37.12-41.62-32.4-24.5-6.77-75.69,32.43-63.91,28.06,8.43,34.77,47.26,10.34,63.55ZM289.87,250.38c-33.06,3.61-28.21,54.1,5.04,51.53,33.97-2.63,29.58-55.31-5.04-51.53ZM342.53,357.42c-7.43-59.83-91.72-59.48-99.75,0h99.75Z" style="fill:#fff;"/><path d="M314.04,66.41c20.02,6.95,35.69,26,38.79,47.09.27,1.87,1.03,8,.93,9.51-.15,2.42-2.97,5.43-5.55,4.96l-113.15-.19c-4.48-1.34-2.5-12.92-1.82-16.52,3.9-20.64,18.97-37.23,38.03-45.21-21.14-16.17-19.22-49.65,5-61.77,40.08-20.04,73.29,35.43,37.77,62.13ZM274.55,54.9c24.67,24.28,60.98-13.79,36.1-37.23s-59.88,13.82-36.1,37.23ZM342.53,117.42c-7.96-58.99-91.25-58.78-99.75,0h99.75Z" style="fill:#fff;"/><path d="M82.29,66.41c16.55,5.91,30.93,20.89,36.21,37.67,1.38,4.39,5.43,21.13.54,23.46H2.8c-4.4-1.98-2.09-13.75-1.29-17.78,3.84-19.21,19.58-36.98,38.03-43.36C17.12,49.7,20.27,14.24,46.52,3.28c21.51-8.98,45.18,3.49,49.79,26.23,3.06,15.08-3.21,26.9-14.03,36.89ZM56.6,11.11c-33.95,4.65-24.7,58.81,10.12,50.62,31.08-7.32,23.42-55.21-10.12-50.62ZM110.78,117.42c-8.45-58.83-91.66-59.02-99.75,0h99.75Z" style="fill:#fff;"/><path d="M175.9,23.09c18.39-.11,40.96,3.75,58.08,10.5,4.07,1.61,12.59,4.09,10.92,9.78-.2.7-2.25,2.88-2.89,3.15-3.48,1.48-14.76-4.25-19.09-5.62-29.66-9.35-62.63-9.39-92.28,0-4.03,1.28-15.45,6.81-18.57,5.87-4.97-1.5-4.45-7.4.17-10.02,15.04-8.54,46.4-13.55,63.66-13.66Z" style="fill:#fff;"/><path d="M128.98,329.11c2.82-2.66,15.73,1.86,19.92,2.57,19.39,3.29,36.39,3.28,55.78,0,4.62-.78,12.71-3.82,16.72-3.56,4.32.28,6.2,4.16,4.05,7.84-1.81,3.1-15.39,5.38-19.4,6.1-19.47,3.49-38.42,3.58-57.91.12-3.82-.68-17.8-3.28-19.72-5.77-1.56-2.03-1.21-5.64.55-7.3Z" style="fill:#fff;"/><path d="M25.09,140.03c2.79-.5,6.09,1.88,6.26,4.75-5.15,22.41-6.41,45.37-2.1,68.04.94,4.94,5.22,16.77,5.08,20.45-.15,3.96-4.01,6.11-7.53,4.5s-7.2-19.74-8.02-24.22c-3.27-17.7-3.52-36.58-.86-54.39.69-4.61,2.07-18.22,7.18-19.13Z" style="fill:#fff;"/><path d="M326.59,140.03c6.43-1.18,7.36,9.47,8.21,14,4.3,22.87,3.72,54.37-4.06,76.46-1.23,3.5-1.93,7.89-6.55,7.73-9.29-.32-1.81-16.17-.63-21.66,5-23.4,4.42-47.83-1.34-71.03-.45-2.38,2.21-5.1,4.37-5.49Z" style="fill:#fff;"/><path d="M191.56,181.7c-.68.84-2.73,1.61-3.87,1.75-8.02,1-31.68.92-39.8-.02-6.87-.79-7.43-9.05-.69-10.47,12.76,1.03,28.02-1.53,40.47-.06,4.59.54,6.64,5.39,3.88,8.8Z" style="fill:#fff;"/><path d="M167.98,159.23c-1.6-1.7-1.48-6.79.88-8.1l44.28-.68c5.66,1.97,4.25,9.52-1.52,10.44-12.36-.94-26.88,1.4-38.97.06-1.16-.13-3.95-.95-4.66-1.71Z" style="fill:#fff;"/><path d="M205.07,173.08c4.28-.96,11.28-.95,11.51,4.73.26,6.31-6.78,6.51-11.51,5.45-5.54-1.24-5.55-8.94,0-10.18Z" style="fill:#fff;"/><path d="M157.09,159.23c-3.22,3.44-16.62,2.49-14.5-5.07,1.25-4.49,9.08-4.6,12.67-3.58,3.12.89,3.78,6.58,1.84,8.65Z" style="fill:#fff;"/><path d="M160.07,224.82c12.48,1.05,29.06-1.97,41.05-.11,5.89.91,6.38,8.62.78,10.44l-41.93-.03c-5.9-.92-5.52-8.92.11-10.3Z" style="fill:#fff;"/><path d="M218.57,224.83c4.03-.91,11.84-.33,11.46,5.41-.34,5.24-6.23,5.33-10.16,4.96-7.88-.75-7.05-9.08-1.31-10.37Z" style="fill:#fff;"/></svg>