<?xml version="1.0" encoding="UTF-8"?><svg id="a" xmlns="http://www.w3.org/2000/svg" viewBox="0 0 384 345.94"><path d="M0,12.75C2.62,6.52,6.7.93,13.87,0l255.4.36c5.33,1.36,11.98,9.56,11.98,15.02v34.88h22.12c4.42,0,4.96,11.25-1.5,11.25h-20.62v72.75h46.12c5.16,0,15.38,10.85,15.38,16.12v116.25l1.12,1.12h12.75l1.12-1.12V64.88c0-.42-3.05-3.15-4.14-3.36-6.67-1.27-25.89,2.35-30.04-2.21-2.65-2.92-1.55-8.32,2.33-9.04,4.11-.76,25.55-.63,29.93.03,6.31.95,11.19,6.77,12.84,12.66l.33,204.8c7.72-1.04,12.26,2.99,15,9.75v7.5c-2.1,6.54-4.65,12.77-10.14,17.23-4.33,3.52-12.45,6.77-17.98,6.77h-13.12v19.88c0,6.1-9.92,15.55-16.19,16.06-32.6-2.06-69.06,2.97-101.21.1-7.42-.66-17.59-9.38-17.59-16.91v-19.12H74.62c-1.77,0-5.16-3.14-5.51-5.05s2.02-6.2,3.26-6.2h134.25l1.12-1.12v-17.62H12.38c-3.1,0,.38,8.39,1.27,9.98,3.43,6.11,8.59,8.04,15.33,8.67,5.87.55,17.4-1.08,22.07.43,3.87,1.25,3.94,7.87.67,9.75-2.98,1.72-17.93,1.48-22.12,1.2-15.57-1.06-25.74-8.82-29.59-24.03v-7.5c1.98-3.84,3.82-7.94,8.38-9.25,2.06-.59,5.94.03,6.52-1.73l.15-41.09c-7.61-1.39-12.3-6.11-15.04-13.18V12.75ZM259.5,134.25l9.27-.1,1.23-1.77.03-114.03c-.03-2.55-.86-5.22-3.04-6.71l-252.21-.23-2.96,3.04v196.11c.26.64,2.53,3.19,2.81,3.19h193.12l-.1-9.27-1.77-1.23-181.11-.39c-1.67-1.4-3.37-2.74-3.06-5.19l.09-171.76c.78-2.39,1.52-3.73,4.12-4.1,10.07-1.42,23.16.79,33.55.09,5.87,1.34,4.15,11.09-2.09,11.09h-24.38v159h174.75v-40.88c0-5.88,10.08-16.88,16.12-16.88h23.25l1.12-1.12V33H83.62c-5.39,0-8.05-10.36-.79-11.29h171.83c2.04-.45,4.84,3.48,4.84,4.91v107.62ZM207.75,238.13c-.79-2.78.58-8.77,0-12l-1.12-1.12H26.25v42.75h180.38c2.07-1.83.63-4.87,1.46-7.54,1.59-5.17,9.41-4.6,10.75.58l.16,64.34c.46,4.04,2.3,6.71,5.97,8.28l98.67.36c4.4-.53,7.35-3.49,7.88-7.88l-.6-174.94c-1.42-3.7-4.24-5.13-8.01-5.49-30.06-2.91-64.77,2.29-95.32,0-3.39.01-6.83,2.35-7.86,5.63l-.77,85.49c-1.08,6.84-9.98,5.86-11.21,1.54ZM342.75,279v17.62l1.12,1.12h12c3.68,0,9.82-2.81,12.37-5.63,1.58-1.75,7.39-13.12,3.38-13.12h-28.88Z" style="fill:#fff;"/><path d="M100.76,150.49c-28.11-28.35-17.95-77.23,19.25-91.6,46.16-17.83,91.29,28.46,71.88,74.13-15.34,36.1-63.4,45.44-91.13,17.47ZM139.37,66.18c-57.8,1.17-56.73,89.94,1.13,89.54,59.72-.41,58.16-90.74-1.13-89.54Z" style="fill:#fff;"/><path d="M307.24,208.01c43.06,44.01-26.6,107.31-66.12,60.5-36.98-43.81,26.9-100.59,66.12-60.5ZM269.82,206.45c-41.02,5.57-35.14,71.84,10.22,66.48,42.33-5,36.04-72.76-10.22-66.48Z" style="fill:#fff;"/><path d="M261.21,163.29c-2.85-2.86-1.6-8.76,2.43-9.52,2.76-.52,20.46-.52,23.21,0,5.4,1.02,6.08,9.81-.91,11.05-3.95.71-15.94.66-20.09.2-1.24-.14-3.82-.9-4.65-1.73Z" style="fill:#fff;"/><path d="M117.24,106.74c7.17-6.56,14.21,9.81,19.53,12.45l22.68-28.36c6.71-3.06,11.19,2.74,7.38,8.89-4.14,6.69-19.2,26.09-24.7,31.55-3.13,3.1-5.05,4.24-9.01,1.48-2.11-1.47-12.99-13.93-14.94-16.56-2.2-2.97-4.35-6.34-.96-9.44Z" style="fill:#fff;"/><path d="M287.49,224.49c5.33-4.47,11.61.95,8.95,7.07l-19.72,25.27c-7.23,5.79-15.32-10.51-20.11-14.3-1.96-2.8-.39-7.18,2.87-8.21,5.91-1.86,9.55,6.15,13.16,9.41,1.22-.04,12.31-17.11,14.86-19.25Z" style="fill:#fff;"/></svg>