<?xml version="1.0" encoding="UTF-8"?><svg id="a" xmlns="http://www.w3.org/2000/svg" viewBox="0 0 779.4 146.87"><path id="b" d="M176.66,31.76c-1.76.08-3.36,1.01-4.86,1.91-9.14,5.4-18.26,10.82-27.38,16.22-1.63.98-3.72.1-5.4-.8-4.6-2.41-9.19-4.83-13.79-7.24,15.84-9.22,31.68-18.45,47.54-27.67,1.31-.75,2.68-1.53,4.19-1.58,1.66-.03,3.21.82,4.65,1.65,20,11.57,40,23.13,60.01,34.7,2.1,1.22,4.32,2.56,5.35,4.76.82,1.78.72,3.82.6,5.76-.24,4.05-.49,8.08-.72,12.12-.1,1.6-1.66,2.66-3.05,3.44-21.58,12.35-43.17,24.72-64.75,37.07-1.19.67-2.68,1.35-3.85.65-32.27-19.35-64.53-38.7-96.8-58.06-3.33-1.99-8.08-3.82-10.65-.9-6.69,7.64-20.7,6.64-26.27-1.86,9.56-5.69,19.12-11.39,28.7-17.1.59,5.32,1.17,10.64,1.78,15.96,1.68-5.09,2.15-10.59,1.35-15.89,31.93,18.53,63.86,37.07,95.8,55.62,1.97,1.14,4.05,2.38,5.17,4.39,2.58,4.57-.78,11.24,2.68,15.19,2.3-3.85-.23-8.88.86-13.21,1.17-4.62,5.95-7.16,10.23-9.27,16.58-8.17,32.43-17.8,47.33-28.73-18.11,9.87-36.22,19.72-54.33,29.6-1.44.78-2.95,1.58-4.6,1.6-1.79.02-3.44-.9-4.99-1.81-32.19-18.65-64.38-37.3-96.57-55.94-2.86-1.65-6.41.07-9.23,1.76-9.07,5.45-18.13,10.88-27.2,16.33-1.06.62-2.25,1.53-2.12,2.76.11,1.03,1.11,1.68,1.99,2.17,8.88,5.02,17.75,10.05,26.63,15.07,2.61,1.48,5.45,3.02,8.43,2.72,3.39-.33,6.07-2.89,8.81-4.94,2.72-2.06,6.41-3.74,9.45-2.15,4.26,2.24,8.53,4.47,12.81,6.69-8.92,5.14-17.83,10.26-26.76,15.38-1.48.86-3.07,1.75-4.78,1.84-2.02.1-3.92-.9-5.69-1.88-21.05-11.52-42.11-23.05-63.17-34.57,18.35,14.78,40.22,24.42,60.4,36.58,1.73,1.03,3.49,2.14,4.6,3.8,3.25,4.85-.21,12.25,3.38,16.85,2.97-3.98-.64-9.9,1.14-14.55,1.06-2.77,3.82-4.47,6.4-5.95,6.93-4.01,13.87-8.03,20.82-12.04,7.34-4.26,16.41.82,23.35,5.71-17.26,9.95-34.51,19.89-51.77,29.82-22.6-12.82-45.18-25.65-67.77-38.47-1.31-.75-2.68-1.55-3.43-2.86-.69-1.19-.75-2.63-.8-4.01-.11-3.7-.24-7.41-.36-11.13-.05-1.35-.08-2.79.57-3.98.67-1.22,1.94-1.99,3.15-2.68,21.7-12.51,43.41-25.03,65.11-37.54,1.57-.9,3.56-1.81,5.09-.85,32.12,20.23,64.59,39.92,97.38,59.04,1.42.83,2.9,1.68,4.55,1.81,2.01.16,3.92-.78,5.69-1.71,11.01-5.73,21.73-12.04,32.09-18.86-10.36-6.22-20.74-12.42-31.11-18.62-1.81-1.09-3.77-2.22-5.89-2.12" style="fill:#fff;"/><path id="c" d="M156.73,59.58c-3.8-2.17-7.59-4.36-11.39-6.53,9.95-6.26,20.05-12.27,30.31-18.01-.02,5.09.29,10.18.96,15.22,1.44-.39,1.75-2.25,1.76-3.74.07-3.95.02-7.9-.13-11.83,9.59,5.78,19.17,11.55,28.76,17.33.2.11.39.24.42.46.03.24-.16.46-.34.6-2.37,2.07-4.8,4.13-7.64,5.5-2.84,1.37-6.15,1.99-9.15,1.04-2.69-.83-4.85-2.81-7.15-4.4-2.32-1.62-5.14-2.95-7.86-2.27-1.13.28-2.12.88-3.12,1.48-2.59,1.55-5.2,3.12-7.8,4.68-1.5.9-3.13,1.84-4.86,1.62-1.01-.13-1.93-.65-2.79-1.16" style="fill:#fff;"/><path d="M345.94,18.81l-1.85,1.85c-2.91-2.78-7.02-4.24-11.39-4.24-9.27,0-14.04,5.3-14.04,14.96v12.71h23.18v2.52h-23.18v65.95h-2.65V46.62h-13.24v-2.52h13.24v-13.38c0-10.06,5.96-16.82,16.55-16.82,4.9,0,10.2,1.59,13.38,4.9ZM371.5,21.72c0,1.85-1.59,3.44-3.44,3.44s-3.44-1.59-3.44-3.44,1.59-3.44,3.44-3.44,3.44,1.59,3.44,3.44ZM366.73,44.1h2.65v68.47h-2.65V44.1Z" style="fill:#fff;"/><path d="M391.76,78.27c0-20.39,14.17-34.56,33.64-34.56,9.8,0,18.8,3.71,24.63,11.12l-1.85,1.99c-5.3-7.15-13.64-10.59-22.78-10.59-17.88,0-30.99,13.11-30.99,32.05s13.11,32.18,30.99,32.18c9.14,0,17.48-3.44,22.78-10.59l1.85,1.99c-5.83,7.42-14.83,11.12-24.63,11.12-19.47,0-33.64-14.3-33.64-34.7Z" style="fill:#fff;"/><path d="M529.49,44.1v68.47h-2.65v-18.14c-3.97,11.39-13.64,18.54-27.54,18.54-17.35,0-28.08-9.93-28.08-28.47v-40.39h2.65v40.39c0,16.95,9.27,25.96,25.29,25.96,17.22,0,27.68-11.79,27.68-29.14v-37.21h2.65Z" style="fill:#fff;"/><path d="M590.94,18.81l-1.85,1.85c-2.91-2.78-7.02-4.24-11.39-4.24-9.27,0-14.04,5.3-14.04,14.96v12.71h23.18v2.52h-23.18v65.95h-2.65V46.62h-13.24v-2.52h13.24v-13.38c0-10.06,5.96-16.82,16.55-16.82,4.9,0,10.2,1.59,13.38,4.9ZM616.5,21.72c0,1.85-1.59,3.44-3.44,3.44s-3.44-1.59-3.44-3.44,1.59-3.44,3.44-3.44,3.44,1.59,3.44,3.44ZM611.73,44.1h2.65v68.47h-2.65V44.1Z" style="fill:#fff;"/><path d="M633.85,103.56l1.59-2.12c4.9,4.77,14.17,9.01,25.16,9.01,16.29,0,22.78-6.22,22.78-15.23,0-22.91-46.88-7.28-46.88-33.9,0-9.14,7.28-17.61,24.23-17.61,8.48,0,17.48,2.78,22.65,7.02l-1.59,2.12c-5.43-4.37-13.38-6.62-21.06-6.62-15.1,0-21.45,6.62-21.45,15.1,0,23.57,46.75,8.08,46.75,33.9,0,10.33-8.34,17.75-25.43,17.75-11.12,0-21.59-3.97-26.75-9.4Z" style="fill:#fff;"/><path d="M764.96,72.18v40.39h-2.65v-40.39c0-16.95-9.14-25.96-24.63-25.96-18.01,0-28.87,11.79-28.87,29.14v37.21h-2.65V14.31h2.65v48.07c4.11-11.39,14.17-18.67,28.74-18.67,16.82,0,27.41,9.93,27.41,28.47Z" style="fill:#fff;"/></svg>