<?xml version="1.0" encoding="UTF-8"?><svg id="a" xmlns="http://www.w3.org/2000/svg" viewBox="0 0 384 384"><path d="M43.5,0c.92.79,3.75,3.05,3.75,4.12v13.88h27.38c2.57,0,9.34,1.99,12.2,2.8,9.25,2.62,17.99,7.15,27.18,9.95V4.88c0-1.57,2.44-3.97,3.75-4.88h3.75c1.36,1.44,3.32,2,3.73,4.14.8,4.15-.97,29.46.45,30.44,12.21,2.78,25.01.8,37.47,1.47,2.47-2.25,5.06-5.39,9.02-6.01,5.05-.79,36.53-.79,40.85.31,4.74,1.21,6.28,5.65,6.73,5.65h39V13.88c0-1.26,3.71-7.47,4.85-8.65,2.41-2.49,5.77-3.52,8.65-5.22h7.5c5.21,1.67,7.98,4.39,11.73,8.13,9.37-4.61,17.51-1.43,24,6,9.37-4.61,17.51-1.43,24,6,12.76-6.42,25.68,2.2,26.55,15.83,6.16.86,14.24-2.49,17.97,3.79v3.75c-.79.92-3.05,3.75-4.12,3.75h-13.88v26.62c0,3.06-1.89,9.71-2.8,12.95-2.6,9.25-7.16,17.99-9.95,27.18h25.88c1.57,0,3.97,2.44,4.88,3.75v3.75c-1.44,1.36-2,3.32-4.14,3.73-4.15.8-29.46-.97-30.44.45-2.78,12.21-.8,25.01-1.47,37.47,2.79,2.8,5.37,5.23,5.99,9.79,1.08,7.95.84,28.44.1,36.71-.34,3.84-1.57,6.62-4.15,9.38-.58.61-1.88.61-1.88.71v39h22.12c1.26,0,7.47,3.71,8.65,4.85,2.49,2.41,3.52,5.77,5.22,8.65v7.5c-1.67,5.21-4.39,7.98-8.13,11.73,4.61,9.37,1.43,17.51-6,24,4.61,9.37,1.43,17.51-6,24,6.42,12.76-2.2,25.68-15.83,26.55-.86,6.16,2.49,14.24-3.79,17.97h-3.75c-.92-.79-3.75-3.05-3.75-4.12v-13.88h-26.62c-3.06,0-9.71-1.89-12.95-2.8-9.25-2.6-17.99-7.16-27.18-9.95v25.88c0,1.57-2.44,3.97-3.75,4.88h-3.75c-1.36-1.44-3.32-2-3.73-4.14-.8-4.15.97-29.46-.45-30.44-12.21-2.78-25.01-.8-37.47-1.47-2.8,2.79-5.23,5.37-9.79,5.99-7.95,1.08-28.44.84-36.71.1-3.84-.34-6.62-1.57-9.38-4.15-.61-.58-.61-1.88-.71-1.88h-39v22.12c0,1.26-3.71,7.47-4.85,8.65-2.41,2.49-5.77,3.52-8.65,5.22h-7.5c-5.21-1.67-7.98-4.39-11.73-8.13-9.37,4.61-17.51,1.43-24-6-9.37,4.61-17.51,1.43-24-6-12.76,6.42-25.68-2.2-26.55-15.83-6.16-.86-14.24,2.49-17.97-3.79v-3.75c.79-.92,3.05-3.75,4.12-3.75h13.88v-27.38c0-2.57,1.99-9.34,2.8-12.2,2.62-9.25,7.15-17.99,9.95-27.18H4.88c-1.57,0-3.97-2.44-4.88-3.75v-3.75c1.44-1.36,2-3.32,4.14-3.73,4.15-.8,29.46.97,30.44-.45,2.78-12.21.8-25.01,1.47-37.47-2.25-2.47-5.39-5.06-6.01-9.02-.79-5.05-.79-36.53.31-40.85,1.21-4.74,5.65-6.28,5.65-6.73v-39H13.88c-1.26,0-7.47-3.71-8.65-4.85-2.49-2.41-3.52-5.77-5.22-8.65v-7.5c1.67-5.21,4.39-7.98,8.13-11.73-4.61-9.37-1.43-17.51,6-24-4.61-9.37-1.43-17.51,6-24-6.42-12.76,2.2-25.68,15.83-26.55.86-6.16-2.49-14.24,3.79-17.97h3.75ZM258.75,79.88v-32.62c-4.74-.12-11.15,3.45-12.4,8.23-1.15,4.41-.81,23.61-.34,28.89,1.62,18.12,15.29,28.68,20.45,44.8,3.38,10.56,3.77,21.82,3.54,32.84h36.38c1.77,0,5.16,3.14,5.51,5.05s-2.02,6.2-3.26,6.2h-44.62v37.5h77.62l1.12-1.12v-35.25l-1.12-1.12h-13.5c-1.11,0-2.95-2.32-3.23-3.54-1.67-7.47,6.35-8.1,11.86-7.7.5-9.44-.68-19.54-.03-28.91,1.47-21.42,16.61-41.06,18.06-62.19.62-9.08.82-24.88,0-33.81-.31-3.37-1.67-7.46-5.72-7.85-10.68-1.02-5.61,14.62-7.39,20.29-1.38,4.4-7.97,5.1-10.2,1.12-3.23-5.76,4.55-30.19-8.98-27.06-8,1.85-2.63,14.8-5.05,20.46-1.72,4.02-7.86,4.36-9.97.6-3.1-5.52,4.06-28.58-7.76-27.4-10.16,1.01-3.08,15.82-6.87,21.7-2.12,3.3-7.48,3.08-9.37-.29-3.23-5.76,3.36-24.34-5.17-27.07-4.71-1.51-7.81,1.55-8.31,6.02-2.11,18.85,1.77,41.34-.16,60.59-.1,5.97-9.96,6.84-11.07,1.68ZM162,47.25h-31.12c-11.67,0-33.38-11.62-45.54-15.21-11.67-3.45-36.76-4.17-48.96-2.79-9.7,1.1-8.96,11.81-.77,12.77,4.13.48,10.14-.87,13.93.32,4.96,1.56,4.86,9.4.18,10.76-6.06,1.76-27.57-4.07-26.46,7.2.92,9.34,14.31,4.17,20.28,6.04,4.96,1.56,4.86,9.4.18,10.76-6.07,1.77-26.54-3.9-26.51,6.53s14.58,4.6,20.73,7.07c3.99,1.61,4.63,6.93,1.11,9.48-3.32,2.4-15.65.51-20.67,1.08-9.3,1.05-9.7,11.77-.77,12.77,18.85,2.11,41.34-1.77,60.59.16,7.73,1.38,5.22,11.07,1.68,11.07h-32.62c-.12,4.74,3.45,11.15,8.23,12.4,4.41,1.15,23.61.81,28.89.34,18.12-1.62,28.68-15.29,44.8-20.45,10.56-3.38,21.82-3.77,32.84-3.54V47.25ZM210.75,120V42.38l-1.12-1.12h-35.25l-1.12,1.12v77.62h37.5ZM237.75,47.25h-15.75v66.75h23.25c-4.95-8.52-9.63-18.92-10.49-28.89-.62-7.22-.81-22.19-.01-29.24.38-3.39,2.22-5.52,3-8.62ZM252.63,125.37l-30.99-.11c-2.79.53-4.43,5.36-9.75,6-8.56,1.03-30.29.86-39.05.02-6.37-.61-7.11-5.07-9.87-5.88-2.14-.63-11.34-.36-14.13-.19-8.14.51-16.18,2.59-23.47,6.15l-.11,30.99c.53,2.79,5.36,4.43,6,9.75,1.03,8.56.86,30.29.02,39.05-.61,6.37-5.07,7.11-5.88,9.87-.63,2.14-.36,11.34-.19,14.13.51,8.14,2.59,16.18,6.15,23.47l30.99.11c2.79-.53,4.43-5.36,9.75-6,8.56-1.03,30.29-.86,39.05-.02,6.37.61,7.11,5.07,9.87,5.88,2.14.63,11.34.36,14.13.19,8.14-.51,16.18-2.59,23.47-6.15l.11-30.99c-.53-2.79-5.36-4.43-6-9.75-1.03-8.56-.86-30.29-.02-39.05.61-6.37,5.07-7.11,5.88-9.87.63-2.14.36-11.34.19-14.13-.51-8.14-2.59-16.18-6.15-23.47ZM114,162v-23.25c-8.52,4.95-18.92,9.63-28.89,10.49-7.22.62-22.19.81-29.24.01-3.39-.38-5.52-2.22-8.62-3v15.75h66.75ZM120,173.25H42.38l-1.12,1.12v35.25l1.12,1.12h13.5c1.11,0,2.95,2.32,3.23,3.54,1.67,7.47-6.35,8.1-11.86,7.7-.5,9.44.68,19.54.03,28.91-1.47,21.42-16.61,41.06-18.06,62.19-.62,9.07-.83,24.9,0,33.81.46,4.93,3.42,9.6,8.84,7.28,6.89-2.96,2.5-14.04,4.28-19.72,1.38-4.4,7.97-5.1,10.2-1.12,3.23,5.76-4.55,30.19,8.98,27.06,8-1.85,2.63-14.8,5.05-20.46,1.72-4.02,7.86-4.36,9.97-.6,3.1,5.52-4.06,28.58,7.76,27.4,10.16-1.01,3.08-15.82,6.87-21.7,2.12-3.3,7.48-3.08,9.37.29,3.23,5.76-3.36,24.34,5.17,27.07,4.71,1.51,7.81-1.55,8.31-6.02,2.11-18.85-1.77-41.34.16-60.59,1.38-7.73,11.07-5.22,11.07-1.68v32.62c4.74.12,11.15-3.45,12.4-8.23,1.15-4.41.81-23.61.34-28.89-1.62-18.12-15.29-28.68-20.45-44.8-3.38-10.56-3.77-21.82-3.54-32.84h-36.38c-1.77,0-5.16-3.14-5.51-5.05s2.02-6.2,3.26-6.2h44.62v-37.5ZM336.75,222h-66.75v23.25c8.52-4.95,18.92-9.63,28.89-10.49,7.22-.62,22.19-.81,29.24-.01,3.39.38,5.52,2.22,8.62,3v-15.75ZM336.75,258.75c.12-4.74-3.45-11.15-8.23-12.4-4.41-1.15-23.61-.81-28.89-.34-18.27,1.63-29.32,15.79-45.97,20.78-10.25,3.07-21.02,3.47-31.66,3.21v66.75h31.12c11.67,0,33.38,11.62,45.54,15.21s36.76,4.17,48.96,2.79c9.7-1.1,8.96-11.81.77-12.77-4.13-.48-10.14.87-13.93-.32-4.96-1.56-4.86-9.4-.18-10.76,6.06-1.76,27.57,4.07,26.46-7.2-.92-9.34-14.31-4.17-20.28-6.04-4.96-1.56-4.86-9.4-.18-10.76,6.07-1.77,26.54,3.9,26.51-6.53s-14.58-4.6-20.73-7.07c-3.99-1.61-4.63-6.93-1.11-9.48,3.32-2.4,15.65-.51,20.67-1.08,9.3-1.05,9.7-11.77.77-12.77-18.85-2.11-41.34,1.77-60.59-.16-7.73-1.38-5.22-11.07-1.68-11.07h32.62ZM210.75,264h-37.5v77.62l1.12,1.12h35.25l1.12-1.12v-77.62ZM162,270h-23.25c4.95,8.52,9.63,18.92,10.49,28.89.62,7.22.81,22.19.01,29.24-.38,3.39-2.22,5.52-3,8.62h15.75v-66.75Z" style="fill:#fff;"/></svg>