<?xml version="1.0" encoding="UTF-8"?>
<svg id="Layer_1" xmlns="http://www.w3.org/2000/svg" version="1.1" viewBox="0 0 1079.8 1080">
  <!-- Generator: Adobe Illustrator 29.7.1, SVG Export Plug-In . SVG Version: 2.1.1 Build 8)  -->
  <defs>
    <style>
      .st0 {
        fill: #fff;
      }
    </style>
  </defs>
  <path class="st0" d="M138.7,521.6c-1.1,9.3-2.2,18.3-2.6,27.3-.6,14.6-1.4,29.2-.9,43.7.5,13.5,2.4,27,3.8,40.5,2.1,20.3,7.8,39.8,12.6,59.5,3.3,13.4-2.5,23.9-18.6,26.2-6.6,1-17.3-5.7-18.9-12.2-4.6-18.6-9.4-37.1-12.9-55.9-2.7-14.7-4.2-29.7-5-44.7-1-18.2-1.9-36.5-.9-54.7,1.5-26.4,5.2-52.6,11.5-78.4,6-24.6,13.7-48.4,23.5-71.7,12-28.6,27.2-55.4,45-80.7,9-12.8,19.2-24.7,29.3-36.6,7.8-9.2,15.8-18.2,24.5-26.5,23.9-22.9,49.7-43.4,78.1-60.6,24.1-14.7,49-27.6,75.6-36.8,17.6-6.1,35.3-11.8,53.3-16.4,13.6-3.5,27.6-5.9,41.5-7.5,21.2-2.4,42.6-3.8,64.2-5.6,0,0-.2-1.4-.9-2.2-9.7-11.1-19.5-22.2-29.2-33.3-10.8-12.4-5.2-29.7,8.3-33.4,7.1-1.9,14.3-1.7,19.8,4.6,11.7,13.3,23.3,26.7,35,40,7.7,8.8,15.6,17.3,23.1,26.3,4.3,5.2,8.7,10.6,11.4,16.6,3.4,7.4-.9,17-7.4,22-6.1,4.7-11.7,10-17.5,15.1-12.1,10.5-24.3,21-36.5,31.4-6.9,6-13.6,12.3-20.9,17.8-7.3,5.5-20.5,4-25.6-2.7-7.1-9.3-7.7-20.3.6-28,9.7-9,20-17.5,30-26.2,2.1-1.8,4-3.7,6.1-5.6-.2-.6-.4-1.1-.6-1.7-12.6.9-25.1,1.7-37.7,2.8-8.3.7-16.6,1.5-24.7,3.1-15.2,3-30.3,6.1-45.3,10-27.9,7.4-54.4,18.3-79.8,32-19.5,10.5-37.9,22.5-55.6,35.9-18.8,14.1-35.9,30.1-51.7,47.3-12.2,13.3-23.4,27.6-34.2,42.1-14,18.8-25.4,39.2-35.3,60.3-12.2,26-21.9,53.1-28.1,81.2-2.6,11.7-4.1,23.6-6.4,35.8Z"/>
  <path class="st0" d="M963.9,712.9c-5.7,14.9-10.8,29.6-17.1,43.8-5.9,13.3-12.6,26.3-19.4,39.2-5,9.3-10.8,18.2-16.7,28.1,5.3-.8,10.2-1.7,15.1-2.4,10.8-1.6,21.5-3.4,32.3-4.5,10-.9,18.4,7.7,19.7,18.7.9,8.3-6.1,18.7-15.5,20.2-12.3,1.9-24.6,3.9-36.9,6-8.9,1.5-17.8,3.2-26.8,4.6-9.6,1.6-19.2,3.1-28.9,4.2-4.9.6-10.1.9-14.9,0-8.4-1.7-12.5-8.1-13.9-16.2-3.4-21.1-6.7-42.3-10.1-63.4-1.9-11.5-4-23-5.9-34.4-1.4-8,7.3-19.6,15.5-20.8,11.6-1.7,20.6,2.8,23.8,13.1,2,6.4,2.5,13.3,3.6,20,1.5,9.6,3,19.2,4.4,28.9.3,1.8.5,3.5,1,6.8,2.8-3.5,5.4-6,7.1-9.1,8.9-15.8,18.3-31.5,26.2-47.8,12.1-24.8,21.3-50.9,27-78,3.3-15.7,5.7-31.5,8-47.4,1.2-8.1,1.6-16.3,2-24.5.5-11.4,1.4-22.9.9-34.2-.6-13.7-2-27.4-3.9-41-2.1-15-4.6-30.1-8-44.8-5-21.2-12.3-41.8-20.8-61.9-11.2-26.5-25.2-51.4-42.1-74.6-8.7-11.9-18.1-23.5-27.8-34.6-8.2-9.5-17-18.7-26.2-27.2-19.3-18-40.2-33.9-62.8-47.5-10.6-6.4-21.4-12.4-32.4-18-19.3-9.8-39.5-17.7-60.2-24.1-14.1-4.3-19.6-18.2-12.7-30.5,3.8-6.7,13.5-12.4,25.1-8,19.6,7.5,39.4,14.6,58.3,23.5,18.1,8.5,35.7,18.4,52.6,29.2,15.2,9.8,29.3,21.4,43.5,32.7,9.2,7.4,18.3,15.1,26.5,23.5,27.4,28,51.7,58.4,71.2,92.5,14.5,25.3,26.8,51.5,36.1,79.1,6.7,19.9,12.6,39.9,15.8,60.5,2.3,14.4,4.8,28.9,5.8,43.5,1.4,20.3,2.7,40.7,1.9,61-.9,22.7-3,45.5-8.7,67.7-4,15.9-8,31.8-12.1,48.1Z"/>
  <path class="st0" d="M226.2,832.8c12.1,14.9,25,28.4,38.9,41.1,15.5,14.3,31.8,27.6,49.5,38.9,16.5,10.6,33.7,20.1,51.2,29,27,13.8,55.7,23.2,85.1,30,14.8,3.4,30,5.1,45.1,7.1,8.9,1.2,18,1.5,27,2.1,7.2.5,14.6,1.4,21.7.9,17.9-1.2,35.9-2.9,53.8-4.9,25.7-2.8,50.7-9.5,75-18,26.9-9.5,52.7-21.3,76.8-36.7,13.8-8.9,27.3-18.4,40.8-27.8,5.1-3.5,9.4-8.1,14.7-11.2,9.7-5.5,20.8-1.7,25.9,6.4,6.5,10.4,4.2,20.9-4.8,27.8-15.2,11.7-30.8,23-46.7,33.8-19.5,13.2-40.1,24.5-62,33.1-15.7,6.1-31.2,12.7-47.3,17.5-17.8,5.3-36.1,9.4-54.4,13-13.2,2.6-26.7,4-40.2,5-16.3,1.2-32.7,2.4-49,1.9-16.8-.5-33.6-2.5-50.2-4.9-16.5-2.3-32.9-5.1-49.1-9.1-15.2-3.8-30.3-8.6-44.8-14.4-18.2-7.3-35.9-15.6-53.5-24.3-21.8-10.8-42-24.6-61.4-39.3-20.2-15.3-38.8-32.3-55.7-51-13.3-14.7-25.1-30.8-37.5-46.3-2.5-3.1-4.6-6.6-7-9.9-.5-.7-1.7-1.5-2.5-1.4-.6,0-1.3,1.4-1.6,2.2-4.4,14.6-8.6,29.2-13,43.8-2.5,8.2-9.5,13.4-16.8,13.9-14.3.9-19.4-5.7-21.5-13.4-1.6-5.7-.2-12.7,1.5-18.7,8.3-29,17.3-57.8,25.7-86.7,3.1-10.7,13.8-17.5,25.9-14,27.5,8.2,55,16.3,82.6,24.4,7.1,2.1,14.6,3.1,19.9,9,5.5,6.1,6.5,16.8,1.7,24.4-3.7,5.9-13.3,10.6-21.3,8.2-12.7-3.8-25.6-7.2-38.5-10.7-1.8-.5-3.8-.5-7.2-1,8.3,10.7,15.7,20.3,23.3,30.1Z"/>
  <path class="st0" d="M743,708.9c7,21.6,14.1,42.7,20.9,63.9,2,6.1,4.2,12.3,4.8,18.6.8,8.9-6.3,17.6-14.5,19.5-9.4,2.2-19.6-1.8-23.1-10.6-4.9-12.5-9-25.4-13.2-38.1-7.6-23-15-46-22.5-69-8.8-27.1-17.6-54.3-26.6-81.3-3.6-10.8-11.2-17.6-22.9-18.8-5.4-.5-10.8-1-16.2-1-62.8,0-125.6-.1-188.5,0-14.7,0-26.2,5.4-31.7,22.6-9.7,30.5-20.1,60.9-30.1,91.3-10.1,30.8-20.1,61.6-30.3,92.3-3.2,9.7-12,14.6-23.5,12.5-6.7-1.2-15.5-7.9-14.6-18.5.3-3.7.9-7.4,2-10.9,6.3-20,12.7-40,19.2-60,10.3-31.7,20.6-63.4,31.1-95.1,4.5-13.4,8.5-27,14.7-39.6,8.9-18.2,24.5-28.9,44.4-32.7,7.3-1.4,15-2,22.4-2,66.1-.2,132.3-.3,198.4,0,27.5.1,53.3,16.7,62.6,44.1,11.9,34.7,23.3,69.6,34.9,104.4.9,2.6,1.4,5.3,2.2,8.3Z"/>
  <path class="st0" d="M636.7,414.4c1.6,9,3.9,17.6,4,26.3.2,14.1-2.5,28-8.1,41.2-6.1,14.6-15.4,26.8-27.2,37.1-13.1,11.4-28.2,19.4-45.5,22-9.9,1.5-20.1,2.7-29.9,1.9-18.2-1.5-34.9-7.9-49.8-18.9-21.2-15.7-34-36.4-39.3-62.1-3.8-18.4-2.1-36.3,4.1-53.8,6.2-17.3,16.6-31.6,30.9-43.4,13.3-11,28.2-18.3,44.9-21.1,19.4-3.3,38.7-2,57.2,5.6,13.1,5.4,24.7,13.1,34.4,23.2,11.4,11.9,20.1,25.6,24.4,42.2M600,449.2c0-2.5,0-5,0-7.5,0-20.9-9.2-37.2-25.8-48.8-26.2-18.3-56.5-13.9-77.6,6.9-13.2,13-19.7,30.3-16.7,50.1,2.3,15.1,8.6,27.4,19.9,37.4,14,12.4,30.1,17.7,48.9,14.8,17.7-2.7,31.3-11.6,41.4-26.1,5.4-7.8,8.3-16.6,10-26.7Z"/>
</svg>