<?xml version="1.0" encoding="UTF-8"?>
<svg id="Layer_1" xmlns="http://www.w3.org/2000/svg" baseProfile="tiny" version="1.2" viewBox="0 0 519 517">
  <!-- Generator: Adobe Illustrator 29.7.1, SVG Export Plug-In . SVG Version: 2.1.1 Build 8)  -->
  <path d="M1,0h518v517H1C.1,347.5.1,169.8,1,0Z" fill="#898989"/>
  <g>
    <rect width="1" height="517" fill="#e0e0e0"/>
    <path d="M67,429h-2v-139.5c0-.2,1.4-1.6,2-1.5v141Z" fill="#878787"/>
    <path d="M179,265v-61c1.3,1.9,1.7.6,2.1,4.4,1.1,11.6,1.4,42,0,53.1s-1.4,2.4-2.1,3.4Z" fill="#818181"/>
    <rect x="65" y="205" width="2" height="60" fill="#7c7c7c"/>
    <path d="M453,219v-15c3.2,2.2,3.2,12.9,0,15Z" fill="#7c7c7c"/>
    <g>
      <g>
        <path d="M372,242h18c1.4,26.1-36.3,32.5-53.3,19.8-24-17.9-14.4-57.2,15.8-59.8s31.7,3.1,36.9,18.1,2.1,7.9,0,7.9h-17c-.9,0-4-8.6-11.3-9.8-14.8-2.5-23.9,16.5-14.7,27.7s22.6,7.5,25.4-3.9Z" fill="#fefefe"/>
        <path d="M452,204v14.5c0,3.4-14.6-.6-15.9,3.1-1.4,12.9,1.4,28.3,0,40.9-.1,1-.5,3.4-1.6,3.4h-15c-.7,0-1.3-1.7-1.5-2.5-2-11.1,1.4-28.2,0-40.1s-.5-3.4-1.6-3.4h-14.5v-16h50Z" fill="#fdfdfd"/>
        <path d="M437,222h3c.5.4-1,1.3-1,1.5v40c0,.2-1.4,1.6-2,1.5v-43Z" fill="#7a7a7a"/>
        <path d="M391,241h-20c0-.6,1.3-2,1.5-2h17c.2,0,1.6,1.4,1.5,2Z" fill="#7b7b7b"/>
        <path d="M391,229c0,.6-1.3,2-1.5,2h-17c-.2,0-1.6-1.4-1.5-2h20Z" fill="#7d7d7d"/>
        <g>
          <path d="M68,203h17.5c.1,0,1.5,1.4,1.5,1.5v61c0,.1-1.4,1.5-1.5,1.5h-16c-.1,0-1.5-1.4-1.5-1.5v-62.5Z" fill="#d4d4d4"/>
          <path d="M85,205v60h-14.5c-.1,0-1.5-1.4-1.5-1.5v-58.5h16Z" fill="#fefefe"/>
        </g>
        <g>
          <path d="M215,266h-18v-62h34.5c1.4,0,8.1,3.3,9.5,4.5,14.5,11.3,9.3,38.6-9.6,41.5s-16.4-1-16.4,1.6v14.5Z" fill="#fefefe"/>
          <path d="M215,219.5c1.1-3.4,15.7-2.2,16.1,7s-16.1,10.8-16.1,8-.7-12.8,0-15Z" fill="#8c8c8c"/>
        </g>
        <g>
          <path d="M309,246c1.6,6.1,3.3,12.1,5,18-.1.6-.3,1-.5,1-5,.3-12.6.6-16.5-1,1-9.3-24.4-8.6-24.1-.3l-.9.3c0,.6-.2,1.2-.5,1.3-.7.4-15.2-.3-16.5-1.3,6.1-19.9,13.1-39.7,20.9-59.7l18.6-.3c1.6,5.3,3.4,10.7,5.5,15.9,3.5,8.5,6.5,17.1,9,26Z" fill="#fefefe"/>
          <path d="M309,246l7,20h-18.5c-1.6,0-.9-5.8-4.2-6.8s-16.2-.6-17.8.8-1.9,5.6-3.5,6.6-1.3-.6-1.5-.6h-15c-.7,0-2-2.2-1.3-3.3l21-59.5h19.7c1.9,5.4,4.7,10.8,5.1,16.8-.3-.7-1.9-1.7-2.4-3-1.4-3.2-2.8-8.5-2.6-12l-19,.5-21,58.5h17c.5,0-.1-6.4,5.4-7.1,2.4-.3,15.2-.3,16.9.2,3.3,1.1,2.3,6.8,2.7,6.8h17c-1.2-4.4-3.8-9.2-4.9-13.6s.2-3.4,0-4.4Z" fill="#e3e3e3"/>
          <path d="M287,227c1.7,5.6,2.6,12.2,4,18-3.8-.8-11.2,2.4-12-3,1.1-6.3,3-12.5,5.4-18.5,1.1.2,2,1.3,2.6,3.5Z" fill="#979797"/>
          <path d="M287,227c-.2-.7-1.4-1.6-1-3-2.1-2.1-5.3,17-7,18-.3-1.7,0-3.7,0-5.4l5-14.6,3,5Z" fill="#dfdfdf"/>
        </g>
        <g>
          <path d="M127,240c-4.1-.6-1,7-1,9.5s1,18.5-2.5,18.5h-18c-.1,0-1.5-1.4-1.5-1.5v-64.5h25.5l12.5,38,12.2-37.8c1.1-.6,22.4-.7,24.2-.3s.5,1.8.6,2c2.2,19.7,2.5,41.3,0,61-.6,1,.4,2.5-2.5,3s-17.5.5-17.5-1.5v-30.5l-5.4,22.1c-3.6,2.7-1,9.2-5,10s-14,.5-14.5,0,0-2.6-.6-3.9c-2.1-4.3-5.5-13.8-6.4-17.8s.2-4.3,0-6.3l2.2.2,7.6,23.4c7.2,2.1,11.3.7,12.2-4.3l7.1-26.5c2.4-2.5,5.8-1.5,3.9,1.7.8,0,2,.3,2,.9.2,3.1.5,26.4,0,27.7s-1.2,1.1-2,1.4c2.2-1.5,2.6-.9,1.5,1.5,1-3.3,13.4-3.1,15,0-1.5-2.2-.9-2.6,1.5-1.5l-2-.9v-56.9l2-1.2c-2.2,1.5-2.6.9-1.5-1.5-.2.8-.5,1.9-1.1,2-2.4.3-17.2.3-18.2-.7s-.5-.8-.7-1.3c.8,1.3.4,2.9-1.1,4.7l-10.9,33.4c-3.9,2.9-5.3-.7-6.5-4.2l-10.8-31.8c-7.4-.6-14.9-.2-22.2.3l2,.9v54.9l-2,1.2c5.4.8,10.8.8,16.2,0l1.8.9c-.8,0-1.9-.2-2-.7-.7-6.8-.9-25.1,0-31.6l2-1.2c2.5-6.3,7.2,6.8,4,9Z" fill="#8c8c8c"/>
          <path d="M127,240c-.9-2.7-1.8-6.2-2-9h-2v33.5c0,2.3-18,2.6-18-1v-57c0-4.2,20.2-2.1,23.9-2.4,1.8,4.6,11.2,37.8,13.6,37.9l11-34c.2-1,2.4-4,3-4h20c.1,0,1.5,1.4,1.5,1.5v59c0,.1-1.4,1.5-1.5,1.5h-15c-.1,0-1.5-1.4-1.5-1.5v-30c0-.2-1.6-1.8-2-1.5-1.2,4.7-7,30.2-9.4,32.1s-11.6,1.5-13.1,0-7.1-21-8.5-25Z" fill="#fefefe"/>
        </g>
      </g>
      <g>
        <path d="M100,345c1-.3,2.2,1,2.5,1h44c.1,0,1.5-1.4,1.5-1.5v-53c0-.1,1.4-1.5,1.5-1.5h30c.1,0,1.5,1.4,1.5,1.5v135c0,.1-1.4,1.5-1.5,1.5h-30c-.1,0-1.5-1.4-1.5-1.5v-53.5h-46.5c-.1,0-1.5,1.4-1.5,1.5v53.5h-32v-138c7.8-.2,15.7.3,23.5,0s8.5-2.3,8.5.5v54.5Z" fill="#fefefe"/>
        <g>
          <path d="M218,412c-3.5-5.2-9-16.4-9-22.5v-99.5h26.5c.4,0,5.5-1.9,5.5,1.5v94c0,3.9,5.4,10.5,8,13.5,14.5,12.2,34.7,4.5,41-12.5l-.8-.2c.1-31.9.4-63.7.8-95.3,0-.6.2-1,.3-1,7.6-.3,15.9-.2,23.4,0,2.8-.4,4.9-.1,6.3,1,.9,32.1.9,67.1,0,99.5-4.3,46.7-75.6,54.3-102,21.5Z" fill="#fefefe"/>
          <path d="M249,399c7.3,5.4,23.1,6.3,30.5,1s9.5-12.4,9.5-17.5v-93.5h32v105.5c0,.7-4.3,11.2-5.2,12.8-16.8,32.1-78.2,34.3-97.8,4.7l10.8,9.7c25.2,15.1,72.8,13.1,86.6-16.8s4.6-13.6,4.6-14.4v-99.5h-30v95.5c0,1.7-4.6,9.3-6,11-7.7,9.3-25.7,11.5-34.7,3.2-.5-.4-.1-1.5-.3-1.7Z" fill="#dbdbdb"/>
        </g>
        <path d="M288,381c-.6,0-2-1.3-2-1.5v-88c0-.2,1.4-1.6,2-1.5v91Z" fill="#818181"/>
        <g>
          <path d="M428,293c24.2,8.1,33.3,44,10,58-3.6,2.5-7,4.8-10.2,6.7,6.3,1.2,12.1,5,17.2,9.3,15.4,16.8,10.1,44.6-9.9,55.6-2,1.1-13.1,5.4-14.6,5.4h-70.5v-138h69.5c1.1,0,6.8,2.4,8.5,3Z" fill="#fefefe"/>
          <path d="M428,293c17.1,6,26.3,19.8,23.9,38.4-1.3,10.5-6.2,15-13.9,20.6-.6-.3-.6-.6,0-1,.7-.5,8.3-7.8,8.6-8.3,6.9-12,3.4-34.6-7.9-43s-7.9-3.6-10.7-6.7Z" fill="#e3e3e3"/>
          <path d="M438,351v1c-1.7,1.2-7.3,4.1-7,5.5s8.1,3.7,9.9,5.1,2.7,2.9,4.1,4.4c-4.1-.9-7.1-5.2-11.1-6.4s-7.3,0-7.9-2.1c-1.4-4.8,5.5-4,7.3-4.7s4.1-2.4,4.7-2.8Z" fill="#eee"/>
          <path d="M382,313h25.5c.3,0,5.5,2.5,6,3,5.9,4.3,7.1,16.5,3.5,22.6-1.1,1.9-8.6,7.5-10.5,7.5h-23c-.1,0-1.5-1.4-1.5-1.5v-31.5Z" fill="#8a8a8a"/>
          <g>
            <path d="M381.5,368h29c.9,0,8.1,5.6,9.1,6.9s2.9,5.7,3.2,6.8c2.6,12.5-7.2,22.9-19.2,24.3-5.3.6-23.5,1.9-23.5-5.5v-31c0-.3,1.2-1,1.5-1.5Z" fill="#e2e2e2"/>
            <path d="M383,403v-34h24.5c.9,0,8.4,4.3,9.5,5.5,6.1,6.5,4.8,18.5-1.4,24.5s-4.7,4-5,4h-27.5Z" fill="#8a8a8a"/>
          </g>
        </g>
      </g>
    </g>
  </g>
</svg>