<?xml version="1.0" encoding="UTF-8"?>
<svg id="Layer_1" xmlns="http://www.w3.org/2000/svg" version="1.1" viewBox="0 0 823.4 389.5">
  <!-- Generator: Adobe Illustrator 29.7.1, SVG Export Plug-In . SVG Version: 2.1.1 Build 8)  -->
  <rect width="823.4" height="389.5" fill="#fefefe"/>
  <g>
    <path d="M579.2,170.3v26.6c0,1.1,2,5.3,2.9,6.2,3.5,3.4,11.9,3,14.8-1s2-4.2,2-4.7v-27.1h5.8v39.8c-.9-.2-5.6.2-5.8,0s.1-3.1,0-3.8c-6.5,6.4-19.8,6.2-23.9-2.7s-1.5-4.1-1.5-4.7v-28.5h5.8Z"/>
    <path d="M758.7,210.1h-5.8v-27.1c0-.4-1-2.9-1.3-3.5-3.4-6-13.6-6-17,0s-1.3,3.1-1.3,3.5v27.1h-5.8v-39.8c.9.2,5.6-.2,5.8,0s-.1,3.6,0,4.3c6.5-7.1,20.1-6.3,24.2,2.9s1.2,3.4,1.2,3.6v29Z"/>
    <path d="M492.3,210.1h-5.8v-27.1c0-.4-1-2.9-1.3-3.5-3.4-6-13.6-6-17,0s-1.3,3.1-1.3,3.5v27.1h-5.8v-39.8c.9.2,5.6-.2,5.8,0s-.1,3.6,0,4.3c6.5-7.1,20.1-6.3,24.2,2.9s1.2,3.4,1.2,3.6v29Z"/>
    <path d="M630.9,170c5.2-.5,12.5.7,16.4,4.4-.8.6-3,3.4-3.7,3.5s-4.6-2.5-6.3-2.7c-5.2-.8-13.3-.6-13.3,6.4s10.4,5.7,15.3,6.5,9.1,3.2,9.8,8.9c2,16.2-24.1,17-32.5,8,.9-.6,3-3.6,4-3.5s3.9,2.6,5.5,3.2c4.8,1.6,15.5,1.9,17.2-4.2s-2.1-7-6.3-7.6-15.3.4-17.8-7.1c-3-9,3.2-15,11.8-15.8Z"/>
    <path d="M521.5,170c2.8-.3,5.2,0,7.9.9s6.6,3.3,6.6,4.9-3.2,3.5-3.6,3.5-3.8-3.3-6.1-3.9c-18.4-4.5-19,27.1-6.7,29.7s9.5,0,12.7-4.1c3.5,3.3,5.1,3.9.4,7.1s-9.4,3.1-14,2.2c-17.9-3.5-18.5-38.3,2.7-40.3Z"/>
    <path d="M554.2,152.5v48.2c0,4.4,5.3,5,8.6,4.6v4.8h-7.4c-1.2,0-4.3-2.5-5-3.6s-1.9-4.1-1.9-4.8v-49.2h5.8Z"/>
    <path d="M495.7,271.5h-4.3v-19.4c0-3.3-3.7-6.4-7-6.5s-7.9,2.8-7.9,6.5v19.4h-4.3v-29.3c3.3.2,4.9-1.3,4.3,2.9,4.5-4.1,13.1-4.8,17,.5s2.2,4.4,2.2,5.5v20.4Z" fill="#010101"/>
    <path d="M771.1,271.5h-4.3v-20.4c0-2.9-4.2-5.5-7-5.5s-7.4,2.4-7.4,5.5v20.4h-4.3v-29.3c3.3.2,4.9-1.3,4.3,2.9,4.7-4.4,12.8-4.7,16.8.7.4.6,1.9,3.4,1.9,3.8v21.8Z" fill="#010101"/>
    <path d="M719.8,248.9s0-.6-.4-.9c-5.4-4.4-13.1-2.3-14.3,4.8s-.5,7.5.5,10.1c1.8,4.6,7.7,6.6,11.9,4.3s2.3-4.4,5.6.8c-12.5,9.9-24.3.8-22.5-14.3s14.4-15.6,22.5-7.7c.2.6-2.7,3.5-3.3,3.1Z" fill="#010101"/>
    <path d="M565.2,241.9c2.6-.3,11.2,1.2,11.2,4.4s-2.5,2.6-2.7,2.6-2.3-2.2-3.9-2.8c-13.6-4.5-15.9,20.2-4.1,21.8,4.7.7,7.6-3.2,8-3.2s2.5,1.7,2.6,2.2c.7,2.5-6.3,4.8-8.4,4.9-17.8,1-19-28-2.7-30.1Z" fill="#010101"/>
    <path d="M445.3,210.1h-5.8v-39.8c1,0,5.8-.4,5.8.7v39.1Z" fill="#010101"/>
    <path d="M667.5,210.1h-5.8v-39.8c1,0,5.8-.4,5.8.7v39.1Z" fill="#010101"/>
    <path d="M670.8,233.1v9.1l6.2.3v3.1s-6.2,0-6.2,0v18.9c0,3.8,6,3.3,6.2,3.6s-.1,2.7,0,3.4c-3.6,0-7.2.5-9.2-3s-1.3-3.1-1.3-3.5v-19.4h-3.4s0-3.1,0-3.1c0-.6,3.4-.1,3.4-.3v-9.1h4.3Z" fill="#010101"/>
    <rect x="539.8" y="242.3" width="4.3" height="29.3" fill="#020202"/>
    <rect x="686.2" y="242.3" width="4.3" height="29.3" fill="#020202"/>
    <rect x="732.3" y="242.3" width="4.3" height="29.3" fill="#020202"/>
    <rect x="661.2" y="152.5" width="6.7" height="6.7" fill="#090909"/>
    <rect x="439.1" y="152.5" width="6.7" height="6.7" fill="#090909"/>
    <rect x="731.8" y="228.8" width="4.8" height="4.8" fill="#080808"/>
    <rect x="686.2" y="228.8" width="4.8" height="4.8" fill="#070707"/>
    <rect x="539.8" y="228.8" width="4.8" height="4.8" fill="#070707"/>
    <g>
      <path d="M804.2,191.9h-26.9c0,9.4,6.4,16,15.9,13.3s6-4.2,6.4-4.2,3.4,3.2,4.1,3.6c-8.8,9.5-26.7,8.4-30.8-5.1-3.9-12.6.3-30.9,16.6-29.6s14.7,7.3,14.7,14.6v7.4Z"/>
      <path d="M798.5,187.6h-20.4c-.4,0-.5-.6-.5-1-.2-16.4,22.4-14.8,20.9,1Z" fill="#fefefe"/>
    </g>
    <g>
      <path d="M695.7,170c16.4-1.7,20.4,14.7,17.6,27.7-3.9,18.7-30.3,17.8-31.9-4.1-.8-10.5,2-22.3,14.3-23.6Z"/>
      <path d="M695.7,175.2c13.1-2.2,14.3,15.1,11.4,23.9-2.9,8.7-16.1,8.5-18.8-.4-2.2-7.2-2.1-21.9,7.4-23.5Z" fill="#fff"/>
    </g>
    <g>
      <path d="M621.4,268.6v16.3h-4.3v-42.7c3.3.2,4.9-1.3,4.3,2.9,4.3-4.3,12.8-4.7,16.5.5s3.5,16.8.4,21.9c-3.6,5.8-12.3,5.6-16.9,1.1Z"/>
      <path d="M627.5,245.7c11.3-1.6,10.6,18.8,4.8,21.6s-10.3-1.3-10.9-7.1-.3-13.6,6.1-14.5Z" fill="#fff"/>
    </g>
    <g>
      <path d="M528.3,228.8v42.7c-3.3-.2-4.9,1.3-4.3-2.9-4.3,4.3-12.8,4.7-16.5-.5s-3.5-16.8-.4-21.9,12.5-5.8,16.9-1.1v-16.3h4.3Z"/>
      <path d="M515.7,245.7c8.4-.9,8.9,8.3,8.3,14.5s-4.7,9.7-10.6,7.2-6.6-20.8,2.3-21.7Z" fill="#fff"/>
    </g>
    <g>
      <path d="M606.1,271.5c-.8-.1-4.1.2-4.3,0-.2-.3.6-3-.7-2.4s-1.7,1.7-3.5,2.3c-8,2.5-18.3-2.1-14.5-11.6,1.1-2.7,5.1-5.1,7.9-5.1h10.8c2.1-8.6-8.3-11.8-13.9-7.4s-1.1,1.7-1.2,1.7c-.5-.2-3.2-2.3-2.9-2.9,4.1-6.2,18.6-5.8,21.5,1.1s.9,2.8.9,3v21.3Z" fill="#010101"/>
      <path d="M601.7,258.1c.5,7.1-1.4,10.4-8.9,10.1-4.1-.2-6.5-1.6-6-6s2.2-4.1,4.1-4.1h10.8Z" fill="#fefefe"/>
    </g>
    <g>
      <path d="M461.1,271.5c-3-.3-4.6,1.3-4.6-2.4-7.2,6.5-23,1.9-18.1-9.4s4.8-4.9,7.5-4.9h10.8c1-7-2.5-9.8-9.3-9.1s-5.5,3.3-5.8,3.3-2.9-2.4-2.4-3.3c2.5-4.8,14.3-4.5,18.5-1.7s3.4,3.5,3.4,4.8v22.8Z" fill="#010101"/>
      <path d="M456.8,258.1c-.1,1.6.2,3.5,0,5-.9,8-18.8,6.4-14.3-2.3s3.1-2.7,4-2.7h10.3Z" fill="#fefefe"/>
    </g>
    <g>
      <path d="M791.2,241.9c12-1.5,14.6,9.7,13.5,19.3-1.7,14.4-22.5,14.5-23.9-.4s.6-17.6,10.4-18.8Z" fill="#010101"/>
      <path d="M791.7,245.7c8.8-1.3,9.6,9.3,8.7,15.4-1.2,9.1-14.2,9.6-15.3-.9s-.4-13.5,6.6-14.5Z" fill="#fff"/>
    </g>
    <g>
      <g>
        <path d="M305.2,249.9h-1c-.4-1.6-3.6-10.3-4.4-10.6-4.3,2.3-8.6,4.6-12.9,7-.2,4.4.5,9.2,4.6,11.7l.3,1c-2.1.8-4.3,1.4-5.8,3.4-1.3.8-2.9,1.2-4.8,1.4-3.6,1.6-7.2,2.9-11,3.9l.3,5.1-.9.7-3,1.1-8.5,5.7c.6.7.3,1.2-.5,1.4-2.8.5-5.8.8-8.6.8l-.5,4.8-.9.7c-.6-.3,0-1.7-1.1-1.4-1.9.4-4.3,2.6-6.8,2.8-6.2.6-11-2.2-16.3-4.7-.8-.4-1.2-1.2-1.1.4l-1.1-.9-1.9-9.3c-3.6.1-7.2.5-10.8,1.1.1,1.8-.4,2.7-1.6,2.9.6-3.2-1-3.1-3.4-4.5s-1.6-1.3-1.9-.3c-1.2.6-2.7-1.4-3.4-2.4l-20.6-13c-2.8-1.3-5.3-3.1-7.5-5.3-1.5-.2-2.5-.6-3-1.4.7-.7,1.3-.1.5-1.2-2-2.6-6.1-5.5-8.7-8.1s-4.6-5.3-6.7-7.9c0-1,.4-1.3,1.3-1.4.5-5.3-2.4-8.4-7.5-9-.4,1.2-1.1,1.6-1.9,1.3.5-1.7-2.1-3.2-2.4-3.8l-1.2-.4c0-3.2-1.2-5.2-4.3-6.3l-.3-1c1-1.2-1.7-3-1.9-3.8l-1-.5.2-8.9c-2-.1-4-.5-5.9-1l-.4-1c-.9-1.9-1.8-3.9-2.9-5.8.9-.3,2.1-.3,3.4,0h7.1c0,0,.5.9.5.9-.4,0-.9-.1-1-.4-.2-1.1-.2-8.6,0-9.7l1-.7-1-.4c-.8-3-10.8-3.4-11-.1l1.8,9.5-.8.8c-3.1-5.5-6.6-10.8-9.6-16.3.1-.4.3-.4.5,0,.8-1,2.2-1.1,4.2-.1.7,0,7.2-2.7,7.6-3.1.7-.7.3-10.3-.5-11.3-4.3-.6-8.8-.2-13.3,1l-.9-.9c1.4-2.2,3.8-3.6,5.3-5.8l.5-1c2.1,0,4.1-.5,6-1.4l.2-11.4.9-.6.5,6.7,5.3-4.3c.4-.1.8-.3,1.1,0,.8.6,1.2,9.5-.1,11.1,0-.4.2-.9.4-1,.8,0,7.9-.2,8.3,0s.6.5.7,1c2.9-3,4.2-7.3,4.6-11.5l-6.1-1.8c-2.5-.5-3.8-1.5-3.9-3.1.4-.3,3.9-3.8,2.9-4.3l.7-.7c3.2,1,6.4,1.8,9.6,2.2,1.2-3.1,2.2-6.3,3.1-9.5-1.7-1.1-2.6-2.3-2.9-3.5,1.8-.4,3.2-2.4,4.3-3.8l1-.5c4.7,2.1,10-4.5,7.6-8.9l.5-1.1c1.3-1.1,3.5-2.4,3.4-4.3l.8-.7c5.1.1,9.8-2,11.1-7.4-1-.9-1.3-1.7-.8-2.5,1.3-1.1,2.8-2.8,3.4-4.3,1-.2,1.8.4,2.5,1.9,1.1.5,15.5-1.4,13.1-5.5-1.2-3.3-2.5-6.5-4.2-9.6l.5-1.2c.9.7,1.1,0,1.7-.5,2.8-2.5,5.7-6.6,8.4-9.4,18.1-19,38-37.1,59.3-52.5,1.6-1.1,7.7-5.8,9.1-5.7s17.1,11.5,19.4,13.2c48.2,36.4,70.9,83.2,98.8,134.8,1.2,2.3,9.3,15.5,9.1,16.6-14.6,18.4-33.7,33.6-52.3,48-12.5,9.6-27,18.5-39,28.2s-1.3.8-1.3,1.8Z" fill="#cecece"/>
        <g>
          <path d="M312.2,179c2.3-.7,2.3,1,3.5,2.1,3.6,3.5,8.2,6.4,9.5,11.5-4.9,3.5-8.7,9-14.9,10.2-1.8-2.3-7.9-9.8-7.4-12.6s3.9-3.9,4.7-4.9,4.2-6.2,4.7-6.4Z"/>
          <path d="M285.6,135.8c1.3-1,14.4,5.4,16.2,7l-.3,1.5-7.1,13.5c-1.5,0-3.5.4-5-.2s-6.4-4.5-6.7-4.8c-4-4.4,2.1-12,2.9-16.9Z"/>
          <path d="M302.4,232.5c-1.3-1.2-4.9-10.6-4.4-12.5s5.1-3.9,6.2-4.9c2.3-2.1,2.8-5.2,6.9-4s8.6,12.7,8.4,13.5c-.3,1.7-9,5.5-10.8,6.5s-3.8,3.7-6.3,1.4Z"/>
          <path d="M288.9,110.8c-1,2.1-5,17.2-5.8,17.7-1.6,1-5.1-1.8-6.8-2.4s-7.9-2.6-8-3.1c2-4.9,2.1-10.3,2.4-15.6l18.2,3.4Z"/>
          <path d="M241.8,81.5c0,5.2,1.7,11.4,1,16.6s-1.3,2.9-1.5,3-4-.8-5-.9c-1.7,0-6.9.4-7.9-.2s-3.1-13.8-3.8-16.1l17.3-2.4Z"/>
          <path d="M264.4,107l-2,16.2c-4.9,1.8-9.8-.6-14.7-1-.3-2-1.8-15-1.4-15.7s2.3-1.3,2.6-1.4c2.9-1,4.3.2,7.2.7s5.5.9,8.2,1.1Z"/>
          <path d="M291.8,187.5c-.3-.2-4.3-5.6-4.6-6.2-2.2-4.5-.5-4.2,1.4-7.6s2.5-4.7,3.2-7.1c4.8-.8,7.8.8,11.2,3.8s4.6,3.9,4,5.9c-3.9,3.3-6,9-11,10.7s-3.7.9-4.2.6Z"/>
          <path d="M280.6,257.5l-13.5,4.8c-3-2.8-7.3-8.7-6-13.1s10.3-7,12.1-7.1c5.4-.2,8.3,11,7.3,15.3Z"/>
          <path d="M218.8,86.8c-.2,5.3,1.6,10.4,3.3,15.3-4.4,2.9-8.3,5.2-13.8,4.3-.6-2-1.6-4.5-2.5-6.4s-3.6-5.3-4-6.6,1.8-4.4,2.5-4.7l14.5-2Z"/>
          <path d="M280.7,176c-2.5-.3-7,.6-9.2,0s-3.4-4.7-3.6-5.6c-1-4.9,2.2-10.1,2.3-15,2.7-1.4,16,6.7,16.3,8,.5,2-6.1,9.6-5.7,12.6Z"/>
          <path d="M278.8,133.8l-3.4,15.3c-3.2,1.2-13.2-.2-14.6-3.3s.7-3.6.7-5c.2-3.8-1.5-9.1,3.2-10.2s8.6,3.6,14.1,3.3Z"/>
          <path d="M297.4,195.8c.4.3,3.7,6.4,4.9,7.8s2.4.8,1.6,2.5c-2.4,4.7-14.7,14.3-18.3,6.6s2-12.3,6.2-17.7c.6-.4,5.1.4,5.6.9Z"/>
          <path d="M255.8,129.5v16.8c-2.7-.1-11.6,1.4-13.4.2s-2.6-12.5-2.4-15.3c2.3-.6,4.7-3,7-3.1s6.3,1.7,8.8,1.4Z"/>
          <path d="M240.4,107l1.2,15.4c-4,2.6-8.4,4.2-13.3,3.1-1.3-5.4-4.1-10.6-3.8-16.3.1-.5,6.2-2.2,7-2.2h8.9Z"/>
          <path d="M182.9,99.8l13.6-3.9,6.5,13.6c-.8.9-1.8,1.3-2.6,2.2s-1.9,3.6-2.5,3.8c-.8.3-6.5.2-7.4-.2-1.5-.6-4.8-6.8-7-7.9l-.7-7.6Z"/>
          <path d="M278.7,202.3c-.4.2-8.7-1.6-9.6-1.9-1.8-.6-2.5-3-2.2-4.8s2.6-8.4,3.5-10.4,4.2-2.4,6.2-2.4c3.7,0,2.6.7,4.6,2.7s5.2,4.5,5.3,4.9c.8,2.6-6.5,9.6-7.7,12.1Z"/>
          <path d="M283,221.7c1.3-.4,6.8.3,7.8,1.1s4.3,10,4.3,10.6-.1.6-.5.9c-.9.7-4.4,1.8-5.9,2.7s-3.7,2.6-5.4,4.1c-1.3-1.5-6.6-3.2-7.5-4.4s-1.3-5.5-1.3-6.4c0-1.3,2.1-2.1,3-3s4-5.3,5.4-5.7Z"/>
          <path d="M177.4,109c1.2-.2,3.7,2.7,4.7,3.8s4.5,5.6,4.6,6.5c.2,3-6.2,10.2-9.4,9.9s-3.7-3.9-4.8-4.8c-1.8-1.5-3.9-2.4-5.9-3.6l2.6-8.4c2.4,0,6.6-3,8.3-3.3Z"/>
          <path d="M248.6,154.5c3.5-1,6.6-2.3,10.3-2s5.9,1.2,5.9,3.5-2.2,13.2-2.8,13.6l-10.3,1.2c-2-.1-2.9-6.8-3.1-8.5-.2-2.6,0-5.2,0-7.8Z"/>
          <path d="M209.8,130.8c-.4-.3-2.5-5.2-3.1-6.3-1.3-2.3-3.6-3.3-2.7-6.2s3.3-5,3.6-5.1c1.7-.9,8.6-1.5,10.2-.7s2.3,6.1,2.6,7.4c1,3.9,2.4,5.2-1,8.1s-7.2,4.8-9.7,2.8Z"/>
          <path d="M178.6,134.9c.8-.5,2.7-.1,3.5.4s6.1,5.6,6.7,6.2c1,1,3.2,4,2.4,5.3-3.1,2.2-9,9.1-13.1,7.3s-6.7-4.8-6.9-6.1,6.7-12.7,7.3-13.1Z"/>
          <path d="M280.1,217.7c-.1.2-2.8,1.8-3.5,2.5-1.9,1.7-3.5,3.6-4.8,5.8-2.9-1.1-11.3-3.5-11.2-7.5s5.4-8.4,6.2-10.5l.7-.3c1.5-.2,8.4.5,9.3,1.3s3.9,7.7,3.3,8.8Z"/>
          <path d="M262.5,273.9c-4.8.2-9.5,2-14.3,1.8-1.6-3.5-4.3-6.8-4.4-10.9,4-.1,8.6-4.9,12-5.6s7.4,5.9,7.6,6.8-1.7,5.9-.9,7.9Z"/>
          <path d="M235.1,146.7c-2.2,0-9.5,4.1-11,3.2s-5.3-12.3-4.6-13.7c1.3-2.6,11.2-6,14.2-4.6.6.4,1.3,13.2,1.4,15.1Z"/>
          <path d="M198,122.5c1,.2,4.9,7.5,5.4,8.8,2,5.5.5,3.4-2.7,6.2s-3.4,4.6-4.5,4.4c-2.5-1.3-10.2-8.1-10-10.7s4.6-6.1,5.3-7.2c1.3-1,5-1.8,6.5-1.5Z"/>
          <path d="M257.5,227c.9-.3,2.5-.2,3.5.2s7.9,5.2,8,5.7-.4,4.8-.7,5.3c-1.7.5-8.7,6.9-9.4,6.9-1.7,0-9.4-6.7-9.4-8.4,1-2.1,3.3-3.5,4.8-5.3s2.4-4.2,3.2-4.5Z"/>
          <path d="M167.9,143.4c-.5.4-11.8-3.6-12.2-4.3s-.3-1-.1-1.6c1.4-1.6,2.5-10.5,3.3-11.2,1.8-1.6,5.9-1.2,7.9.2s6.5,5.4,6.7,5.8c1.5,2.5-1.8,4.4-3,6.1s-2,3.2-2.5,4.9Z"/>
          <path d="M262.9,176.6c.6.4,2.7,4.2,4.4,4.4l-5.8,12.7c-3.6-1.5-7.6-2.1-11.5-2.4.9-2.3.4-12.7,1.6-13.8s10.4-1.5,11.3-1Z"/>
          <path d="M225.5,273c2-.1,11.9-4.1,13-3.6,2.7,1.3,4.9,12.2,3.1,14.6s-11.2,1.5-13.2,1.2c-1.6-3.9-2.1-8.1-2.9-12.2Z" fill="#010101"/>
          <path d="M245.6,233.1c-.9.5-5.4-3.2-6.2-4s-3.2-4.5-3.4-5.8,1.5-2.8,2.3-4.4c1.2-2.5.3-4.7,4.3-4.9s10.9,4.8,11.2,7,0,1-.3,1.6c-1.2,2.8-6.7,7.2-8,10.5Z"/>
          <path d="M218.3,152.1l-12.5,4.3c.4-2.4-7.4-9.4-6.7-10.5,4.9-1.3,8-9.6,13.6-7.6s4.6,11.8,5.6,13.8Z"/>
          <path d="M242.8,168.4l-12.5,1-1.9-13.9c2.4,0,5.8-3.3,7.9-3.3s5.3.9,5.6,1.1.9,2.7.9,2.9v12.2Z"/>
          <path d="M240.9,259.5l-4.7-11.2c3-2.8,5.9-5.8,9.7-7.4,2.7,4.1,11.4,8.1,7.1,13.7l-12.2,4.9Z"/>
          <path d="M245.2,209.6l3.3-12.2c2,.5,12.4,1.7,13.2,2.7,2.8,3.2-3.4,13-6.2,15.3-2.9-2.7-6.5-4.5-10.3-5.8Z"/>
          <path d="M222.6,157.4l2.4,13.9c-4.6.6-9.2,1.3-13.9.9.6-2.7-4.9-9.3-3.7-11s14.2-4.6,15.1-3.8Z"/>
          <path d="M194.2,150.2c1.7-.3,5.5,5.2,6.2,6.6s2,6.7,1.4,7.7-6.6,2.3-7.8,2.4-6.4-.9-6.9-1.2-2.5-6.9-2.4-7.6,5.6-3.9,6.7-4.8,1.9-2.9,2.7-3.1Z"/>
          <path d="M242.8,194.3c.8.8-2.9,13.3-3.9,14.1-2.1,1.8-3,0-4.5-.8s-7.2-3.4-7.4-3.8-.2-7.5,0-8.2,2.6-2.9,2.8-3c1.1-.7,10.6,2.8,13,1.7Z"/>
          <path d="M245.1,174.3c.1,0,1.6,1.7,1.6,2,0,1-1.1,3.1-1.3,4.5-.5,3-.9,6.1-1.1,9.2-4-1.2-8.3-2.3-12.5-2.4l-1-12.5c2.9.5,12.2-1.9,14.3-.8Z"/>
          <path d="M164.5,148.8c1.4,2.4-2.4,10.6-4.7,11.6s-6.3.4-7.3.1-1.3-1.1-1.8-1.6c-3.4-3.9-1.1-4.5.1-8.5s1-4.1,1.3-6.1c.5-.4,11.8,3.4,12.4,4.4Z" fill="#010101"/>
          <path d="M220.8,254.3c.1-.2,1.3-.4,1.8-.8.8-.7,2-2.3,2.8-2.5s4.3-.3,4.9.1,3.1,6.6,3.7,7.8,1.8,2.4,2.5,3.7c-.3,1.4-12,5.9-13.1,5.5-2.1-.6-3.5-12.4-2.6-13.8Z"/>
          <path d="M144.2,161.2c.7.2,2.1,2.8,2.1,3.6s-1.5,3.1-1.9,4.3-1.3,5.7-1.5,5.9-5.4,1.1-5.9,1.1c-1,0-3.3-2.7-5-2.4v-12.5c3.2.6,9.5-.8,12.2,0Z"/>
          <path d="M178.9,158.4c.2.3,1,6.3.8,6.6-.7,1.1-10.8,7.2-11.7,6.7s-3.4-4.6-3.6-5.3c-1.6-5.7,3.1-7.1,5.8-11.4.7-.2,8.4,3,8.7,3.4Z" fill="#010101"/>
          <path d="M232.7,228.4c.1.1,0,1.4.5,2.2s6.7,4.8,6.7,5.7c-2.2,1.5-6.2,8.4-8.4,8.9s-3.3.3-3.7-1.1c-.2-2.8-4.9-9.3-4.6-11.5s1.4-3.1,1.7-3.3c1-.7,7.3-1.4,7.8-.9Z" fill="#010101"/>
          <path d="M233.6,213.1c.5.9-2.7,8.9-3.3,9.3s-6.1,1.2-6.5,1.2c-.6,0-6.2-9-6.9-10.3,0-.6,6-5.4,6.9-5.5s9.3,4.7,9.7,5.4Z"/>
          <path d="M214.9,256.3c.7.8,2,10.4,1.5,11.3-2.9,1.2-7.1,2.4-10.3,2s-.8-1-1.5-1.4-2-.5-2.1-.6c-.7-.8,1.8-11.5,3-12.5s8.7.4,9.3,1.1Z" fill="#010101"/>
          <path d="M224.1,177c.4,4.5,3.9,9.5-.2,13-2.9,2.4-3.3.4-5.5-.3s-6.2.1-7.5-3.5.9-4.5,1.9-8.2l11.4-1Z"/>
          <path d="M221.2,195.8c0,1.2.3,7.2,0,7.6s-1.7.3-2.6,1c-1.4,1-3.4,4.1-4.1,4.6s-.9.3-1.4,0c-2-2.5-5.7-4.9-6.2-8.3s1.6-5.6,1.9-6.1c2.4-3.1,9.5.2,12.4,1.2Z" fill="#010101"/>
          <path d="M158.7,166.6c.4.2,4.3,7.5,4.3,7.9.2,1.2-1.2,2.2-2.1,3-2.2,2.1-4.5,3.8-7.7,3.4s-.9-1.2-2-1.9-2.8-1.2-4-1.5l3.4-11c.3-.2,7.6-.2,8,0Z"/>
          <path d="M222.1,247c-.2.3-5.5,3.1-6.1,3.2-1,.2-5.2.5-5.7.2s-1.5-3.5-1.5-4c-.4-2.8.3-6.4,0-9.3.3-.5,9.2-1.4,10-.8s3.8,9.9,3.3,10.8Z"/>
          <path d="M204.9,182.3h-12c-.4-3.5-.9-7-.3-10.6l10.6-2.7c.7.1,3.5,6.3,3.6,7.3.2,2.5-2.3,3.4-1.9,5.9Z"/>
          <path d="M187.6,182.7c-.4.5-9.1,1.4-9.9.9s-4.9-8-4.2-9,7.7-4.6,8.6-4.9.9-.4,1.7-.1c4.2,1.6,3.9,9.4,3.8,13.1Z" fill="#010101"/>
          <path d="M204.4,186.6c0,1.5.2,3,0,4.5s-2.1,7.8-2.3,8.1c-.5.8-6.2.8-7.5,1.3-.7-2.3-1.9-4.4-2.5-6.7s-1.1-5.6-1.1-6.1.3-1.1.6-1.1h12.7Z" fill="#010101"/>
          <path d="M168.8,178c.5.3,4.8,8.6,4.9,9.3,0,1-1.8,5.7-2.7,5.9s-10.6-3.2-11.4-3.7-1-4.1-.7-4.7c2.1-.9,7.5-8.1,9.9-6.7Z" fill="#010101"/>
          <path d="M205,222.7c.1-.2,3.5-1.6,4.5-2.5s1.8-2.3,2.9-3.3c.7,0,7.4,8.2,7.4,9.7-.2.9-3.4,4-4.3,4.4s-6.4,1.4-7.3,1.2c-2.5-.7-4.1-7.9-3.1-9.4Z" fill="#010101"/>
          <path d="M200.1,254.3c.4.5-3.1,11.4-3.7,11.5s-4.4,0-5-.3l-6.2-6.8c-.1-.6,4.5-7.2,5-7.3l9.7,2.9Z" fill="#010101"/>
          <path d="M139.6,193.8l1-12c2.6-.4,11,1.8,12.2,3.8s.2,6-.8,7.1-3.2,1.1-3.5,1.1h-8.9Z" fill="#010101"/>
          <path d="M203,249c-2.2-1-9-1.2-10.6-2.2s-1.8-8.5-1.4-8.9c3.3.3,6.3-1.2,9.5-1.8s3.7-1.1,3.8.9c.1,3.2-1.5,8.4-1.3,11.9Z" fill="#010101"/>
          <path d="M191.9,203.4c.9,1.5-.5,11.8-1.1,12.4s-8.7,1.5-9.4,1c-1.2-.8-.6-9.3,0-10.9l10.5-2.5Z" fill="#010101"/>
          <path d="M185.2,240.9c.3.2,1.2,6.5.9,7.3s-1.9,1.9-2.5,2.8c-1.1,1.5-1.4,3.9-3.3,3.2s-6-5.1-6.3-5.7c-1.3-2-.5-4.4,1-6.2,2.2-2.6,7.2-1.1,10.2-1.4Z" fill="#010101"/>
          <path d="M202.9,219.1c-.9.5-7.3-2.2-7.5-3.1-.4-1.3,2.5-7.6,1.9-9.8,1.6.3,5.5-.5,6.7.2s5,5.6,5.1,6c.6,1.9-3.1,3.3-4.6,4.6s-1.4,2-1.5,2.1Z" fill="#010101"/>
          <path d="M176.8,236.5c-.3,0-2.6-5.5-2.6-6-.2-2.4,2.3-6.3,2.7-8.9.6-.1,5.7.8,5.9,1,.5.5,1.6,12.1,2,13.9h-7.9Z" fill="#010101"/>
          <path d="M199.6,224.1c.4.6.5,5.9.8,7.1l-10.9,2.2c-.4-1.4-2.5-10.4-2.2-10.9s5.2-2,5.7-1.9.9,1.4,1.9,2,4.4,1.1,4.6,1.4Z" fill="#010101"/>
          <path d="M150.7,199.6c-.3,1.3,1.3,7.1.9,7.6s-2.5.7-3.3,1.3c-1.3.9-1.7,3.3-3.1,3.6-2.2.4-2.5-.9-3.9-1.9s-1.6-.4-1.6-.5v-10.1h11Z" fill="#010101"/>
          <path d="M166.1,213.4c-.2-.1-.9-2.3-1-2.7-.3-3.1,4.3-6.5,5.8-9.1.9-.6,6.2,2.9,6.4,3.2.3.4-.9,9-1.2,10.4-.4.3-9.6-1.5-10-1.8Z" fill="#010101"/>
          <path d="M186.7,188.5l.9,11c-2-.1-4.5,1.5-6.4,1.3s-6-3.1-6.3-3.7c.2-2.6,2.6-4.8,2.7-7.6,3.1.2,6-.5,9.1-1Z" fill="#010101"/>
          <path d="M168.4,196.7c-.3,3.2-3.7,4.6-5,6.7s-.2,4.2-3.8,3.2-3.3-2.1-3.5-2.3c-.3-.4-1.3-6.4-1.2-6.9,0-.9,1.1-1.5,1.6-2.2s.2-1.2.3-1.3c1-.9,9.6,2.9,11.5,2.8Z" fill="#010101"/>
          <path d="M171.3,234.6c.9.9-1.2,9.4-2.4,10.7s-4,.6-5,1.3c-.5-3-4.9-7.8-5-10.4s2-1.6,2.6-1.6h9.8Z" fill="#010101"/>
          <path d="M159.8,229.7c-.1-.1-.9-2.9-.9-3.2-.2-1.5,2.5-3.3,3.5-4.4s2.5-3.8,3.1-4.1c.9-.5,5.3,1.7,6.5,2.2.3.4-1.9,8.4-2.7,8.9s-9.1,1.1-9.5.7Z" fill="#010101"/>
          <path d="M156.4,223.1c-.4.3-1.3-1.6-1.8-1.9-1.8-1.3-7-1.8-7.3-4.6s3.8-2.9,4.8-3.8,2.1-2.7,2.2-2.7c.3,0,5.7,1.1,5.9,1.2.4.3,1.4,2.3,1.4,2.9.2,2.8-4.5,6.2-5.3,8.8Z" fill="#010101"/>
        </g>
      </g>
      <g>
        <path d="M62.4,134.3c-.4-4.8,0-14.2,2.5-18.4s.4-.9,1.1-.8l18.5,2.9-3.4,16.3h-18.7Z"/>
        <path d="M173.1,371.2c-.3.6-7.5,4.8-8.7,5.5s-7,3.8-7.5,3.3c.5-3.2-8.1-15.8-6.7-17.7,2.6-.2,12.9-6,14.5-5.7s8,11.1,8.4,12.7.3,1.4,0,1.9Z"/>
        <path d="M28.8,211.6c-.3,3,6.1,11.5,5.7,13.6s-4.4,3.9-5.9,5.1-4.4,5.1-5.7,4.7-11.5-13.6-11.3-14.5c.4-2.3,14-9.5,17.2-8.9Z"/>
        <path d="M191.9,75.3c1.1,2.7,5.1,9.9,4.8,12.2s-.3,1.3-.7,1.7c-1.5,1.5-12.3,4.2-14.1,3.1s-1.7-2.2-1.9-2.6c-1.3-2-4.2-6.4-5-8.2s-1-2.9-.7-3.3c4.5-1.3,10.1-6.4,14.7-6.7s2.2,1.9,3.1,3.8Z"/>
        <path d="M96.9,97.9c1.3-5.8,3.3-11.7,7.4-16.2,3.8,2,8.3,2.5,11.5,5.7s4.5,6.1,3.1,8.4-6,5.5-7.5,7.8l-14.6-5.7Z"/>
        <path d="M75.8,345.4c-.4-4.3-1.8-14.6,1.9-17.5,2.4-1.9,11.5.9,14.9.3l1.4,17.3h-18.2Z"/>
        <path d="M248.2,322c2.6,0,14.6,2.4,15.5,4.2s-2.6,14.6-4.1,15.6-1.3.2-2,0c-2.1-1.3-14.4-4.4-15.1-5.5s-.4-5-.1-5.9c.4-1.3,5.7-5.9,5.7-8.4Z"/>
        <path d="M155.3,62.5c.9-.2,2.1-.3,2.8.4,1.3,2.7,8.4,11.8,8.4,14.2s-10,5.7-11.3,8.3c-2.8-1.7-11.7-9.1-11.7-12.2s10.4-10.3,11.8-10.7Z"/>
        <path d="M44.6,197.1c-3.6.5-11.1,7.4-14.5,6.2s-7-15.4-6.4-16.3c2.7-1.1,5.6-1.4,8.3-2.2s8.6-3.7,9.4-3.5.6.7.8,1.2c.6,1.5,2.9,14,2.3,14.6Z"/>
        <path d="M48.4,268.2c.8,1.4-5.1,13.7-6.5,14.2s-3,.2-4-.2l-11.4-8.6c-.2-1.6,8.6-13.2,9.8-13.6,4.5-1.4,5.2,2.4,7.8,5s4.1,3,4.2,3.2Z"/>
        <path d="M290.3,307.5l-1,18.7c-6.3.2-12.2-2.2-18.2-3.4-.5-.6,2.6-13.8,3.6-15.3h15.6Z"/>
        <path d="M57.6,316.5c-.6-1,4.3-16.1,5.3-16.7,1.9-1.2,10.6,2.5,12.7,3.7,3.5,1.9.5,5.2.1,8s1.6,8.3-3.2,9.3-11.1-3.6-14.9-4.3Z"/>
        <path d="M209.6,346.9c1.4-.4,8.7,5.4,10.5,6.6s2.5.9,3.5,1.8c-1.8,3.4-4,7.2-6.7,10.1s-4.3,4.7-6.5,3.2c-1.6-2.3-9.8-7.6-10.3-9.9-1-5,1.6-4.4,4.5-7s4.2-4.5,4.9-4.7Z"/>
        <path d="M191.4,357.8c0,0-1.6.6-2.1,1-3.7,2.7-7.1,6.2-11.7,7.2-.7-4.5-10.1-12-8.6-16.5s10.3-4.4,12.1-5.5c3.5,2.8,7.5,4.6,9.3,8.9s1.5,4.1,1,4.9Z"/>
        <path d="M137.6,79.2c.8-.2,1.7.4,2.4.8,1.7.9,10.1,8.6,10.2,9.9s-.8,4.7-1.4,5.7-6.3,5.4-7.5,5.4-9.9-5.7-10.9-6.6-2.4-2.4-2.6-3.6c-.5-2.9,1.3-2.4,2.9-3.8s6-7.6,7-7.9Z"/>
        <path d="M88.8,97.9c-.1,5.5-3.6,9.7-4.8,14.8l-17.3-3.4,5.3-17.2c1.6-1.3,14,5.8,16.8,5.7Z"/>
        <path d="M136.7,345c1,2.7,7.2,13.6,5.6,15.8s-14.9,3.2-17.1,3.8c.3-6.4-2.4-12.2-3.6-18.2,1.3-2.2,12.4-1.3,15.1-1.4Z"/>
        <path d="M313.3,277.7c-3.6.5-7.2,1.5-10.8,1.9s-5.9.6-6.4.3c-2.5-1.6-2.6-12.2-2.3-15.1l16.3-4.2,3.3,17Z"/>
        <path d="M57.6,136.7l-1,14.8c-5.6,1.3-11.4,2.5-17.2,2.5l-.5-17.3h18.7Z"/>
        <path d="M26.4,238.9c4.1-.8,12.9-12.2,17.1-9.2s5.2,9.7,5,10.8-5.8,7.2-6.5,8.9c-1.2,1.1-5.2,3.2-6.5,1.7-.7-1.8-9.7-11.4-9.1-12.2Z"/>
        <path d="M58.5,158.9c2,4.4,2.2,9.4,1.9,14.2-3.2.6-12.6,5-15.3,3.7s-3.6-12.2-4.1-15.6c5.7-1.2,11.6-2.8,17.5-2.3Z"/>
        <path d="M265.8,318.5c-2.2.9-16.5-2.4-17.1-3.4s-1.1-6-1.1-6.4c.2-1.3,3.9-5.1,3.4-7.4,2.6.3,13.2-.8,14.6.4,2.6,2.3,2,13.5.2,16.7Z"/>
        <path d="M54.3,271.6c.2-.2,5.7-.2,6.3,0,1.2.4,5,5.3,7,6-1.1,1.8-3.2,13.9-3.8,14.3s-4.7.8-5.8.5-8.6-4.8-9.7-5.6-1.1-.8-1.5-1.3c2.4-4.7,7-8.1,7.5-13.9Z"/>
        <path d="M134.7,116.9c-.9.8-5.5,1.2-6.8,1s-11-3.6-11.3-4.1c-.6-.9-.7-4.8-.2-5.9.9-1.9,7.1-6.3,8.2-9.1.4-.2.7,0,1.1.2,1,.4,11.9,7.3,12.3,7.9,1,1.6-2.1,8.9-3.2,10Z"/>
        <path d="M80.9,139.6c.6.2,1.7,5.9,1.7,6.9s-2.1,7-2.6,7.5-14.2,2.8-14.7,2.1-2.2-4.8-2.3-5.7c-.4-3.3,1.1-7.4.9-10.8h17Z"/>
        <path d="M97.8,320.3c0,.2-2.9,1.7-3.2,1.8-2.1.5-11.7,0-12.8-1.7s.7-14.2,1.2-16.1c1.7-.7,4.1-2.2,6-2.2s7.3,2.4,7.7,2.9c.8,1.1,1.7,14.2,1.1,15.2Z"/>
        <path d="M219.6,329.7c.6-.1,1.2-.1,1.8-.1,1.6,0,9.8,2.8,11.3,3.6s2.9,4,2.2,5.5c-2,1-7.3,10.2-8.2,10.5s-1.4.1-2.1-.2c-1.1-.5-8.5-5.5-9.4-6.4s-2.3-3.2-2.1-4.9,4.3-7.5,6.5-7.9Z"/>
        <path d="M55.1,213.8c-.1.2-2.8,1.9-3.5,2.5-1.3,1.2-2.9,2.7-4.1,4.1s-1.2,3.3-3.5,3-4.5-3.8-5.7-6.3-3.3-7.1-2.8-9.1,8.1-4.1,9.6-4.9,1.7-1.5,2.3-1.6c1.7-.5,5.6,2.3,6.5,3.9s2,7.1,1.2,8.4Z"/>
        <path d="M99.8,327.6c1.9-.6,3.9-1.4,6-1.5s8,0,8.8,2.3l2.5,15c-5.7,1.3-11.5,1-17.2,1v-16.8Z"/>
        <path d="M290.8,301.7h-15.8c0,0,0-.8-.5-1.2-1.5-1.6-2.1-1.9-2.4-4.3-.5-4.3,0-8.7,4.7-9.7s11.8-2,12.4-1.9c1.8.3,1.7,14.9,1.6,17.1Z"/>
        <path d="M305.2,249.9c.2,1,.8,4.1.4,4.7s-12,3.7-13.8,4.4c-1.8,0-4.2-3.5-4.9-4.9s-1.5-7.3-.8-8.4,3.3-1.5,4.1-1.9c1.9-1.2,8-5.9,9.9-5.3s4.7,9.7,5.1,11.5Z"/>
        <path d="M163.1,350.6c-.4.7-13,4.1-14.8,4.7-2.1-6.1-6.6-11.2-4.8-18,3.8.4,9.1-2.7,12.6-.9s8.1,12.5,7,14.3Z"/>
        <path d="M105,122.7c-3-.4-5.9-1.3-8.9-1.8s-4.2,1-5.7-2c-2.4-4.7-.4-4.6,1.5-8.2s2.5-4.6,3.1-7.2c2,.8,14.6,5.4,15.1,6.2s.4,5,.1,5.9c-.4,1.5-5.2,4.4-5.2,7Z"/>
        <path d="M286,262.4c3.3,4.5,1.5,10.5,1.9,15.8-4.9,2-9.9,1.2-15,2-1.5-2-2.7-4.3-3.2-6.7s-.7-6.2-.4-6.7c6.2-.4,10.6-5.3,16.7-4.4Z"/>
        <path d="M205.8,342c-.1.2-3.1.9-3.9,1.5-1.6,1.1-3.7,7-6.3,6.2s-.9-1.4-1.5-1.9c-2-1.6-9.8-6.3-9.7-8.8s1.5-5,1.6-5.2c.3-.3,4.3-3,4.8-3.2,5.8-2.6,6,.3,10.2,3s4.4,2,4.5,2.2c.3.5.4,5.8.2,6.2Z"/>
        <path d="M59.5,264.7c-.2.1-3.5.1-4.1,0-2.3-.3-2.1-1.8-3.3-2.9-2.3-2.1-6.2-4.5-6.3-8.1s4.9-5.1,5.3-6.8c2.1-3.1,6.3-4.7,9.6-2.4s4.9,6.5,4.9,7.5-4.2,7.3-5,8.8-1.1,3.7-1.2,3.8Z"/>
        <path d="M258.2,280.1c1.1-.1,5.7-.7,6.2-.4s3,5.6,3,5.9v9.8h-16.3c-.4-2.5-3-5.3-3.4-7.7s.5-4.2.5-6.2c3.1-.3,6.2-.6,9.3-1s.7-.4.8-.4Z"/>
        <path d="M80.5,278.4c3.6-.2,2,.3,3.9,2s2.8,2.2,2.8,2.4c.2.8-.8,4.9-.9,6.2s.4,8.5-.8,8.8c-2.5.7-14.7-1.4-15.5-3.6s2.5-13.4,3.5-14.6,5.8-1.2,6.9-1.3Z"/>
        <path d="M165.6,104.6c-.6-.4-5.7-5.8-6.2-6.6-1.3-1.9-1.9-4.5-1.9-6.8,4.4-1.8,7.8-5.9,12.6-6.8.9,2,1.9,3.9,3.1,5.7s2.4,2.6,3.5,4,1.9,2,1.8,2.5-2.3,4.9-2.5,5.1c-1.6,1.6-8.3,4.2-10.3,2.9Z"/>
        <path d="M240.8,312.9c2.3,6.2-.5,10.9-3.7,16-5.1-.3-9-4-13.9-5.1,0-5.2-3.2-8.5,2.2-11.8s10.1.4,15.4,1Z"/>
        <path d="M132.9,320.5c1,3.1,6.7,11.1,5.7,14.1s-1.1.6-1.4,1.1c-.5.7-.2,2.1-1.2,2.5-2.6-.5-10.9,1.7-12.7.8s-.6-.6-.8-1.1c-.6-1.4-2.7-14.3-2.3-15,1.2-1.8,10.4-1.8,12.7-2.4Z"/>
        <path d="M83.4,254.8c.6.8-2,16-2.8,17s-8.4,1-9.6.4-5.7-5.8-5.8-7.2,5.4-8.6,5.5-10.8c1.6-1.4,10.2.3,12.7.5Z"/>
        <path d="M215.9,316.2c.3.4.2,7.4-.2,8.1s-6,5.1-6.8,6.6c-1.4-.9-11.5-6.3-11.7-7-.7-3,1.3-11.7,4.7-12.5s13.5,4,14,4.8Z"/>
        <path d="M48.5,182.8c2.6.6,12.4-4.8,13.4-4.6,4.7.9,7.5,7.7,6.1,11.9s-5.9,3.7-7.1,4.4c-3.4,2.2-3.6,4.9-7.7.9s-4.9-8.5-4.7-12.7Z"/>
        <path d="M54.8,237.4c0-2.6-5.9-9.4-4.6-11.4,2.7-1.1,6.7-6.6,9.2-7.1s7.7.7,8.8,1.6,1.8,5.4,1.4,7.1-2.3,2.2-3,3.2c-3.6,5.2-3.6,7.7-11.7,6.6Z"/>
        <path d="M162.2,108.9c1.5,2.7,1.4,5.4-.5,7.9s-5.5,4.8-8.6,2.6-1.9-1.9-3.7-2.8-3.8-1.7-5.9-2c-.3-.3.8-8.6,1-9s7.7-3.9,8.8-4.8c2.2,2.9,7.2,5,8.9,8Z"/>
        <path d="M85.9,172.2c-2.8.3-12.4,6.5-14.3,5.6s-2.3-2.2-2.6-2.7c-2.3-3.5-1.8-8.4-1.5-12.5.6-.9,13.6-3.3,14.7-2.6s4.4,11.4,3.8,12.2Z"/>
        <path d="M110.4,136.2c-.3-3-.8-5.6-.3-8.7s4-5.1,5.5-8.4h.6c3.8,2,8,3.2,12.1,4.6.1,2,.8,9.2-.3,10.3-2.9,3.2-13.6.7-17.8,2.2Z"/>
        <path d="M104.1,128.6c.2,2.3,1.3,10.4-.1,11.9s-13.8,2.9-15.5,1.6-3.1-5.7-3-6.9,2-3.5,2.5-4.6.5-2.5,1.2-3.6c1.2-.9,12.4,2.2,14.9,1.7Z"/>
        <path d="M104.6,320c-.4-5.1-1.3-10.2-.9-15.3,4.1-1,7.4-4.8,12-3.1l5.1,13.9c0,.6-2.6,2.5-3.3,2.8-1,.5-5,1.7-6,1.7h-7Z"/>
        <path d="M166.4,323.4c1.2-.2,3.4-.4,4.4.1l9,8.1-1.3,6.3-10.8,5c-1.4-4.3-7.3-8-7.5-12.7s4.1-6.4,6.1-6.8Z"/>
        <path d="M144,330c-.8-2.4-6.2-10.5-5.8-12.5s4-3.7,5-4.6c1.5-1.4,1.6-3.6,5.2-2.3s4.4,5.9,5.4,7.1c1.9,2.2,3.9,1.6,3,5.9s-2.7,5.1-3.2,5.4-9.1,1.4-9.5,1.1Z"/>
        <path d="M227.9,304.6l-1-13c3.4,0,14.2-2.2,16.5,0s2.2,6.2,2,7.4-3.3,7.9-4.7,7.8c-2-.2-5.6-1.8-8.4-2.1s-3,0-4.5,0Z"/>
        <path d="M79.6,206.2c-.1.2-1,.4-1.3.8-2,2-7.1,8.1-10.2,7.4s-1.3-1.2-2.3-1.6-3.7-.6-3.8-.8c-.4-.3-1.3-8.5-2-9.7,3-.8,9.7-6.6,12.3-6.4s5.8,5,6.2,5.6c.6,1,1.7,3.7,1.1,4.7Z"/>
        <path d="M105.6,280.6c-.6,2.3,2.8,12.7,2.2,13.9s-7.5,4.6-9.3,4.7-2-1.2-3.3-1.7-2.9-.5-3-.6c-.5-.5.8-13,1.1-14.9.4-.6,10.6-1.4,12.3-1.4Z"/>
        <path d="M103.2,148.2c-.1,4.1,2.2,7.9,2.2,12-3,.8-11.4,4.4-14,2.9s-6.2-10.5-4.1-13.3,13-1.5,15.9-1.6Z"/>
        <path d="M97.7,191.9c.7-.2.8.4,1.1.8.8.8,6.3,9.3,6.3,10,0,1.5-4.1,7.6-5.3,8.6s-2.5,1-3.8.4-9.3-7.1-9.7-8c-1-2.3,2.6-5.3,4.4-6.8s6.6-4.9,7-5Z"/>
        <path d="M191.4,312.3c.6.6-.4,9.4-1.2,10.5s-5.9,3.4-7.2,3.4-9.6-7.4-9.8-8c-.7-2.2,4.6-7.6,4.7-10.5,5.1,0,8.6,3.8,13.4,4.6Z"/>
        <path d="M122,300.4c.5-.8,9.1-5.8,10.6-5.3s5.7,9.1,7.2,10.2c.9,1.5-.6,2.8-1.6,4-3.7,4.4-7.3,3.9-12.7,4.5-.4,0-.5-.4-.7-.8-.6-1.1-3.3-11.9-2.9-12.5Z"/>
        <path d="M86.3,178.6c.4,0,.7,0,1.1,0,1.1.7,7.2,8.5,7.1,9.1-.2,1.9-10.2,8.9-12.5,8.4s-6-4.8-6.3-5.7c-.7-2.1-.1-5.1-.2-7.3.2-.7,9.6-4.4,10.9-4.5Z"/>
        <path d="M85.9,234.1l-4.8,13.7c-.5.3-7.8.4-8.9.2-2.3-.3-4.9-6.3-4.5-8.4s3.8-4.9,4.5-6.1,1.2-2.7,1.3-2.8c2.1-1.3,9.8,3,12.4,3.3Z"/>
        <path d="M101.7,260v14.6c-3.2,1.5-10,1.7-13.5.5s-2.2-1.7-2.2-1.8c-.4-1,2-11.5,2.9-12.2s2.4-1.1,2.5-1.1h10.3Z"/>
        <path d="M148.8,123.3c.9.6,3.8,2.4,3.9,3.1.2,2.3-3,7.9-2.9,10.7-.7.6-10.1-1.7-11.5-2.4-2.4-1-2.6-2.6-2.8-5.1-.6-6.1.9-6.7,5-10.6.5,0,7.4,3.5,8.4,4.2Z"/>
        <path d="M221.2,306.5c-1.9,0-3,4.1-3.3,4.4-.6.4-11.8-4.5-13.7-4.8l2-12c.5-.8,5,.4,6.3.5,1.9.1,6.2-.5,7.4.7s.7,9.3,1.4,11.2Z"/>
        <path d="M114.7,176.5c-2-4.1-3.3-8.5-3.8-13,.1-.4.7-1,1-1.4,2.9-.3,13.1-2.8,14.9-.7s1.4,11.6.5,12.5-7.1,3.4-7.6,3.5c-1.6.1-3.3-1.1-4.9-.9Z"/>
        <path d="M124.8,142c.2.8,0,11.9-.2,12.5-.8,1.3-5.9,1.8-7.4,1.9s-5.7.2-6.2-.6-2.2-11.7-1.9-12.3,2.1-1.2,2.1-3c4.2.9,8.8.5,12.9,1s.7,0,.7.5Z"/>
        <path d="M93.5,215.9c.7,1.1-5.3,12-6.5,12.4s-7.5-3.8-9.6-3.7c-2.5-.3-2.6-6.6-2-7.7s2.7-1.7,3.3-2.3c1.8-1.7,3.3-3.7,5-5.4.6,0,4.8,3.9,5.8,4.6s3.8,1.9,3.9,2.1Z"/>
        <path d="M107,166.5c0,4.1,2,7.7,3.3,11.5-3.2,1.7-6.5,3.2-9.5,5.2s-1,2-2.2,1.5-6.1-8.1-6.3-8.6c-.9-2.7,0-5.2,2-7.1,4.3-.5,8.3-2.5,12.6-2.5Z"/>
        <path d="M178,300.7c-.6.4-2.8,0-3.6-.3-1.2-.4-9.8-6.3-10.1-7.1-.8-2.4,4.1-5.8,5.7-7.6s.9-2,1-2.1c1.4-.9,11.5,1.3,11.9,2.6,0,1.8-4.2,14.1-4.8,14.5Z"/>
        <path d="M171.8,304.6c.3.5-3.7,10.5-4.1,11-.6.7-6.3,1.8-6.9,1.4s-.5-1.5-1-2.1c-2.2-2.6-5.3-4.6-7.1-7.7,2.8-3,6-5.6,7.9-9.4,4,1.8,6.9,5.6,11.2,6.8Z"/>
        <path d="M206.8,278.7c0-.6.9-2,.5-3.1,0-.4.3-.6.7-.7,1.2-.4,11.7-1.5,12.2-1,0,3.8,1.4,7.4,1.9,11s.8,3.9-.3,4.2c-5.1-.4-10.3-.2-15.2-1.3-.9-.6.1-3.2.2-4.1,0-1.6-.2-3.4,0-5Z" fill="#010101"/>
        <path d="M92.4,254.2c-5.3-.6-6.3-2-5.3-7.2s2.4-8.3,2.7-8.6c1.7-1.4,10.6,2.8,12.8,3.4l-.9,12.4c-3-.3-6.4.3-9.4,0Z"/>
        <path d="M123.8,278.3c.9,3.3,5.1,8,3.6,11.5s-10.6,6.4-13.6,5.7l-2.2-14.9,12.2-2.3Z"/>
        <path d="M108.1,225.3c.5.6,1.1.1,1.3,1.8s-.4,9.1-.8,9.4c-2.3,1.3-16.1-4-16.5-5.2.4-2.9,5.4-13.6,9.1-11.9s5,3.6,5.5,4.1.9,1.1,1.4,1.7Z"/>
        <path d="M186.7,291.2c2-.3,11.2.3,12.3,1.9s-.4,10.7-.8,12.2-1.2,2.1-1.9,2.4c-2.9,1.3-11.8-3.6-13.9-6.2,2.4-2.7,4.3-6.6,4.3-10.3Z"/>
        <path d="M135.3,139.1c3.2,2.6,7.4,2.6,11.1,4.2,0,2.9-1.9,12.2-5.5,12.2h-9.4c0-3.3-.2-6.6-.5-9.9s-.5-1.1-.5-1.2c-.4-5.5,1.8-3.3,4.8-5.3Z"/>
        <path d="M147.6,285c.8-.1,4.3,4,5.2,4.8s4.2,1.9,4.1,3.6-5.9,7.3-6.9,9.4c-.9.7-5.1.8-5.8,0s-.7-2.1-1.3-3c-1.7-2.7-3.7-5.2-5.7-7.8,3.5-2.2,7.5-3.7,10.4-6.9Z"/>
        <path d="M145.3,280.5c-.5.9-10.1,5.5-11.6,6.8-2-1.2-6.2-13.4-5.5-14.3,3.1-.4,11.4-3.8,14-2.8s3.9,9.1,3.1,10.4Z"/>
        <path d="M198.2,271.5c2,.2,2.1,1,3.4,2.4s1.3.5,1.4,1.7c.3,2.9-2.3,8.4-1.9,11.7-1.7,0-12.3-1.5-12.9-2s-1-3.6-1-4.3,3.4-8.5,4-9c.8-.7,5.6-.6,7-.5Z"/>
        <path d="M120,260c-.2,2.1,3.3,11.3,2.3,12.4-2.5,0-12,2.8-13.6,2.4s-1.2-2.7-1.2-3.1v-11.8h12.5Z"/>
        <path d="M140.1,254.8l.8,10.5c-.9,1.2-12.6,2-13.7,1.2-.7-2.3-3.5-10.4-1.8-12.1s12.1.1,14.7.4Z"/>
        <path d="M116.1,183.3c.4.3,2.7,8.5,2.8,9.4.3,3.3-2.4,6.4-5.5,7.2s-3.3.4-3.5.3c-1.1-.5-5-9.4-7.1-10.5,1.2-2.7,11.4-8.1,13.4-6.4Z"/>
        <path d="M123.2,251.3c-.1.2-.9.4-1.3.9s-1.6,3.1-1.8,3.1c-1.1.2-5.6-.9-7.1-1s-3.7,0-5.5,0l1-12.4c1.5-.5,2.8-1.2,4.4-1s8.4,3.1,8.9,3.6,1.6,6.3,1.3,6.9Z"/>
        <path d="M173.4,267.8c1.3-1.5,5.9-4.7,7.9-4.9s6.3,4,6.2,5.8-4.2,10.3-4.7,10.7-8.5-1.7-8.9-2.2-2.2-6.6-2.1-7c0-.5,1.2-2,1.6-2.4Z"/>
        <path d="M165.9,271.6c.2.2,1.9,5,1.9,5.5.1,1.2-1.5,4.6-2.3,5.6s-3.8,4.4-4,4.6c-2.1,1.6-2.4-.7-3.9-2s-4.2-2.4-4.8-5.2,0-3.3-.7-4.8c3.3,0,6.7-4.3,9.5-4.7s3.9.7,4.3,1Z"/>
        <path d="M116.1,206.3c0,0,.3,1.5.6,2,1.6,3.4,4,6.1,4.2,10.1-.2.9-7.2,3.9-8.7,3.6-1.7-2.3-5.8-4.4-7.4-6.3s2-4.3,3.1-5.9,1.4-3.3,1.6-3.4c.3-.2,6.3-.2,6.6,0Z"/>
        <path d="M125.2,239.9c-1.4-.8-11.1-3.9-11.4-4.4-.8-1.2.8-5.9.5-7.6,2.2.3,8-4.2,9.6-3.2s.9,1.8,1.4,2.4c.9,1.1,2.3,2,3.1,3.1,3.7,5.5-2.4,4.5-3.1,9.6Z" fill="#010101"/>
        <path d="M126.7,198.6c2.2.2,4.8,1.5,7.2,1,.4.4-.4,9,0,10.6-2.8,1.6-5.9,2.4-9.1,2.8-.6-2.7-4.9-7.1-4.7-9.7s1.8-4.1,2.3-4.4c.7-.4,3.4-.3,4.3-.2Z" fill="#010101"/>
        <path d="M145.9,257.6h11.3c1,0,2.9,7.1,2.6,8.3s-9.1,5.3-10.2,5.1-3.7-5.1-3.7-5.9v-7.4Z"/>
        <path d="M167,251.8c4.6-.1,4,1.7,7,3.8s4,1.1,3.5,3c-.4,1.7-2.7,2.3-4.1,3.4s-1.8,2.1-3,2.8-4.9,1.6-5.9,1-2.5-12.8-2-13.4c1.5,0,2.8-.4,4.3-.5Z" fill="#010101"/>
        <path d="M142.5,238.9l-.9,11.5-12.4-2.5c-.4-.6.5-4.6.9-5.5s4-6.5,4.3-6.7c1.8-1,6.3,3.1,8.1,3.2Z" fill="#010101"/>
        <path d="M141.6,221.6c-2.9,2-3.6,7.8-8.2,6.5-.9-1.8-8.2-7.7-6.7-9.8s8.6-4.3,9.1-4.4c1.3,0,3.9,1.8,4.5,2.9,1,1.7.7,3.7,1.2,4.8Z" fill="#010101"/>
        <path d="M154.9,240c.8.5,5.1,8.9,4.4,9.9s-12.6,2.7-13.4,2c1-2.4.3-8.9,1.7-10.5s6.4-1.9,7.3-1.4Z" fill="#010101"/>
        <path d="M152.1,234.6c-1.4.5-4.5,1.2-6,.9s-5.3-3.4-5.1-5.5,2.5-3.9,2.9-4.6,1.2-2.1,1.4-2.2c1.2-.8,6.5,1.8,7.5,3.1s2.3,6.5,1.2,7.5-1.4.5-1.9.7Z" fill="#010101"/>
        <path d="M114.7,176.5h-.5c-2.2-4.1-4.9-7.9-3.4-13,1.6,4.2,3.5,8.4,3.8,13Z" fill="#cacaca"/>
        <path d="M123.8,192.8c-.2-.5-1.9-9.5-1.9-10.3-.1-4.3,8-3.3,10.7-2.5s2.3,1.6,2.3,3v10.8c-2-.3-10.2.8-11-1Z"/>
      </g>
    </g>
  </g>
</svg>