<?xml version="1.0" encoding="UTF-8"?><svg id="a" xmlns="http://www.w3.org/2000/svg" viewBox="0 0 370.74 370.77"><path d="M184.99,88l4.25,1.42c23.53,16.25,54.04,28.13,76.94,44.55,2.34,1.68,4.11,2.38,3.85,5.9l-.59,93.98c-.8,1.71-6.05,4.4-7.94,5.56-23.7,14.5-48.66,27.05-72.26,41.73-2.78,1.77-5.19,1.77-7.98,0-23.5-16.28-54.06-28.14-76.94-44.55-2.34-1.68-4.11-2.38-3.85-5.9l.59-93.98,1.89-1.86,82.05-46.84ZM254.25,138.79l-68.07-38.88c-3.04-.77-15,8.63-18.93,9.63l68.63,40.22,18.37-10.98ZM225,156.77l-1.24-2.12-66.26-38.05c-2.83-.7-9.32,4.35-11.98,6.06l68.18,39.78,11.3-5.66ZM203.25,168.04l-68.06-38.88-18.94,9.63,68.76,40.38c1.59-.91,19.05-10.05,18.24-11.13ZM180,267.78v-79.12l-69-40.12v80.25l69,39ZM259.5,228.78v-80.25l-17.88,9.87c-1.06,1.7.51,30.21-.11,35.52-.17,1.46-.43,2.67-1.5,3.75l-24.56,14.49c-2.74,1.13-6.95-2.12-6.95-4.75v-29.62l-18,10.88v79.12l69-39ZM219,197.28c4.22-.93,8.27-4.07,12-6.38v-25.88l-12,7.12v25.12Z" style="fill:#fff;"/><path d="M297.55,237.96c4.07-.68,14.17-.6,17.72,1.42,6.64,3.78,1.6,13.97,10.93,16.09,7.17,1.63,10.47-9.11,19.17-3.45,1.79,1.16,11.83,11.62,12.21,13.29,2.04,8.88-5.41,9.43-4.29,17.04,1.3,8.94,11.39,4.18,15.58,10.68,2.33,3.61,2.5,18.24.44,21.94-3.72,6.68-14.12,2.63-15.9,10.34s5.95,9.1,4.16,17.68c-.73,3.51-11.11,13.89-14.62,14.62-8.77,1.82-10.87-6.95-18.76-3.76-6.57,2.66-2.64,11.82-9.25,15.49-3.67,2.04-18.3,1.9-21.94-.44-6.4-4.12-1.91-13.79-10.05-15.45-7.98-1.62-8.31,5.71-17.04,4.28-2.93-.48-14.38-11.97-15.09-14.9-2.15-8.9,7.9-10.13,3.71-18.72-3.06-6.29-9.48-2.96-13.82-7.17-4.23-4.1-4.11-20.08-.61-24.68,4.32-5.68,13.52-.59,15.34-10.21,1.21-6.4-6.32-8.36-4.78-15.97.71-3.49,11.89-14.68,15.38-15.38,8.43-1.71,10.73,8.63,19.21,3.47,6.32-3.84.4-14.23,12.29-16.21ZM308.93,248.35l-9.67-.07c-.38,15.34-18.76,23.18-30.52,13.59l-6.91,6.38c9.3,12.27,2.25,30.41-13.57,31.02l.07,9.67c12.42,1.24,21.38,13.98,16.45,25.98-.68,1.65-2.66,3.58-2.92,4.65-.53,2.16,4.78,5.88,6.26,7.52,12.75-9.77,29.44-2.82,31.57,12.97l9.22-.14c2.16-15.68,18.88-22.44,31.6-12.98l6.62-6.79c-7.73-8.32-5.27-23.02,4.68-28.46,2.84-1.55,5.6-1.63,8.23-3.17l-.07-9.22c-11.75-.99-19.02-11.02-17.04-22.73.58-3.4,3.11-5.7,3.98-8.82l-6.77-6c-12.51,9.77-29.41,1.98-31.21-13.42Z" style="fill:#fff;"/><path d="M47.48,173.04c-2.78-2.37-4.86-8.84-8.48-11.01-5.86,40.62,4.65,82.85,30.34,114.83l.76.42c14.89-5.9,28.91,8.37,23.14,23.14,32.33,27.52,78.19,37.84,119.91,30.14,4.53-.84,19.39-5.93,21.93-5.76,4.25.28,6.61,5.68,3.77,8.96-1.41,1.64-12.79,4.68-15.63,5.37-42.03,10.18-86.18,2.77-122.66-20.04-2.48-1.55-12.91-9.67-14.12-9.92-1.79-.37-6.93,2.27-10.28,2.13-9.75-.4-17.95-10.15-16.85-19.83.25-2.23,2.44-5.52,2.05-7.39-.26-1.25-8.09-11.2-9.62-13.67-20.44-32.85-28.61-70.58-23.24-109.14-4.55,1.81-10.06,10-15.42,6.8-4.24-2.54-2.53-6.73.48-9.36,2.22-1.94,20.78-15.09,22.24-15.29,1.58-.21,3.55.6,4.72,1.72,2.9,6.26,14.49,17.11,16.01,23.06,1.4,5.49-4.75,8.49-9.03,4.84ZM74.79,286.69c-7.77,1.75-5.8,15.7,3.4,13.95s6.85-16.25-3.4-13.95Z" style="fill:#fff;"/><path d="M342.01,209.28c4.71-2.03,12.29-12.1,16.83-5.22,2.08,3.16,1.15,5.07-1.46,7.46-3.57,3.27-14.9,11.33-19.19,13.81-3.14,1.82-4.99,2.91-8.2.08-1.46-1.29-14.78-20.09-15.55-21.98-1.64-4.03.75-8.22,5.24-7.53,5.05.78,7.56,9.9,11.81,12.62,5.83-40.58-4.28-84.08-31.1-115.25-14.79,5.83-28.96-8.36-23.14-23.14-33.37-28.4-80.82-38.41-123.64-29.38-3.85.81-15.83,5.15-18.19,5-4.25-.28-6.61-5.68-3.77-8.96,1.41-1.64,12.79-4.68,15.63-5.37,42.03-10.18,86.18-2.77,122.66,20.04,2.48,1.55,12.91,9.67,14.12,9.92,1.84.38,4.74-1.61,6.75-1.93,10.78-1.68,21.27,7.91,20.38,18.84-.19,2.33-2.4,6.48-2.05,8.17.26,1.25,8.09,11.2,9.63,13.67,20.47,32.89,28.62,70.5,23.24,109.14ZM292.31,69.92c-9.51,1.81-6.85,16.25,3.4,13.95,7.77-1.75,5.8-15.7-3.4-13.95Z" style="fill:#fff;"/><path d="M75.12,127.66c-.36.43-.08,2.02-.48,2.86-1.11,2.33-3.01,4.92-5.62,5.66s-16.27.78-19.12.3-5.4-2.88-6.59-5.43c-.49-1.05-.4-3.04-.71-3.4-.2-.23-4.32-.98-5.84-2.04-5.57-3.84-5.88-18.62-2.93-23.87.88-1.56,3.27-2.56,3.31-4.27.23-9.83-10.08-19.27-12.07-28.42-4.71-21.6,11.61-42.36,33.79-42.36,23.17,0,40.05,22.92,32.83,45.16-2.55,7.85-11.44,16.51-11.28,25.47.03,1.43,3.76,4.06,4.28,7.37.44,2.86.44,12.77-.12,15.53-1.42,6.98-8.45,6.25-9.45,7.43ZM63.75,96.78l6.42-.71c.46-4.92,1.93-9.57,3.95-14.05,4.43-9.81,9.79-12.13,8.38-24.63-2.65-23.48-37.45-27.61-45.88-5.37-5.88,15.48,2.79,19.47,7.65,31.61,1.61,4.02,3.07,8.81,2.98,13.15h6v-27.75c-4.51-1.88-16.21-6.87-11.02-13.28,4.12-5.09,12.34,3.17,16.64,4.79,4.19-2.09,13.97-10.65,17.24-3.5,3.31,7.23-8.67,9.25-12.36,13.11v26.62ZM74.25,107.28h-31.5l.33,9.05c.85,1.21,4.26.51,5.89.86,5.22,1.13,3.67,8.7,4.71,8.87l10.83-.02c-.49-7.22,2.51-10.15,9.75-9v-9.75Z" style="fill:#fff;"/><path d="M88.3,8.41c3.68-.76,7.33,2.16,6.8,6.07-.12.86-5.52,10.27-6.29,10.99-3.8,3.56-9.68.57-9-4.48.33-2.4,6.14-12.1,8.48-12.58Z" style="fill:#fff;"/><path d="M4.31,30.89c2.25-.4,11.86,4.93,13.27,6.68,3.79,4.68-.85,9.35-6.55,8.05-.76-.17-9.42-5.33-9.88-5.87-2.56-2.99-.55-8.21,3.16-8.86Z" style="fill:#fff;"/><path d="M26.8,8.41c5.39-1.11,11.91,11,10.37,15.66-1.17,3.54-5.76,3.73-8.31,1.47-.75-.67-5.77-9.46-6.03-10.51-.71-2.91.88-5.99,3.97-6.62Z" style="fill:#fff;"/><path d="M111.56,30.9c4.43-.76,7.71,4.05,5.03,8.1-1,1.51-8.27,6.16-9.9,6.59-5.93,1.55-10.1-3.21-6.55-8.05.77-1.05,10.11-6.41,11.42-6.64Z" style="fill:#fff;"/><path d="M57.55.16c3.66-.74,5.79,1.11,6.21,4.73s.76,11.85-1.88,13.9C52.74,25.92,49.45,1.79,57.55.16Z" style="fill:#fff;"/><path d="M298.32,270.22c49.44-6.69,54.24,65.92,8.04,68.79-43.82,2.73-49.21-63.22-8.04-68.79ZM299.05,280.7c-7.97,1.34-17.04,10.41-18.38,18.38-5.3,31.6,38.42,40.36,46.52,12.02,5.16-18.07-9.75-33.48-28.14-30.39Z" style="fill:#fff;"/></svg>