<?xml version="1.0" encoding="UTF-8"?>
<svg id="Layer_1" xmlns="http://www.w3.org/2000/svg" baseProfile="tiny" version="1.2" viewBox="0 0 975 337">
  <!-- Generator: Adobe Illustrator 29.7.1, SVG Export Plug-In . SVG Version: 2.1.1 Build 8)  -->
  <path d="M975,1v336H0V1C320,.1,654.7.1,975,1Z" fill="#8c8c8c"/>
  <g>
    <rect width="975" height="1" fill="#d0d0d0"/>
    <g>
      <path d="M755.6,232.6c-19.2,21.3-70.5,19.4-97,16.3-2-.2-6.2-1-7.1-2.9s1.1-15.6,1.8-19.2.8-9.5,7.2-9.6c17.8-.3,35.4,5,53.9,1.7s19.1-8.2,15.2-20.9c-3.5-11.3-33.2-14.9-43.6-18.4-20.4-6.9-33.3-20.6-34-43-1.7-54.3,63-52.1,101.4-47.4,9.9,1.2,7.4,6,6.3,14.1s-.7,16.8-10.2,16.9c-15.7,0-37.1-5.9-52-.1-10.6,4.1-13.4,18.1-3.8,24.9,15,10.6,42.1,7.7,59.8,23.2,17.5,15.3,17.2,47.9,2.1,64.6Z" fill="#fefefe"/>
      <path d="M631.8,91.2c1,1,1.1,2.7,1,4-.2,4.1-2.1,14.6-3,19s-3.3,5.8-8.3,5.8c-14.2,0-43.5-6.2-55.4,1.5s-8.7,15.8-2.1,22c8.1,7.6,33.1,10.1,45,15,24,9.9,32.3,26.9,28.8,52.7-6,44.4-74.4,41.5-107.1,37.6-2.5-.3-6.6-1-7.4-3.6s1.5-17.1,2.3-20.4,1.6-7.7,7-7.8c18.4-.2,42.2,6.7,60.2,0,9.1-3.4,12.1-13.2,7.2-21.5-5.9-10.1-38.5-13.8-50.5-19.5-34.9-16.5-34.4-69.4,2.7-83.6s54.9-5.8,73.4-3.4,5.6,1.4,6.3,2.2Z" fill="#fefefe"/>
      <path d="M824,119v125.5c0,2-3.3,4.3-5.5,4.5-3.7.5-27.7.3-29.3-1.3s-.8-1.6-1-2.5l-.2-151.8c.5-2.5,2.9-4.6,5.4-4.6,32.4,3,92.7-11.7,108,27.1,8.7,22.1,3.6,43.6-14,59s-7.6,4-7.3,6.3l36.1,59.9c1.3,2.3,1.3,6-1.2,7.2s-28.8,1-32.5.5-5.2-1.8-7.3-4.7c-11.7-16.2-19.9-39.7-31.4-56.6-2.3-5.7,1.4-25.4,6.3-28.2s8.9-1.5,13.4-5.6c7.7-6.9,8.1-25.1-.5-31.4s-7.3-3.6-8.4-3.6h-30.5Z" fill="#fefefe"/>
      <g>
        <path d="M428,184c-4.7-.6-14.8,2-17.3-3.2s-1.2-17.7-.8-21.3,1.6-6,5.5-6.5c8.1-1.1,33.8-1,42.1,0,2.5.3,4.5.8,5.7,3.3,1.2,28.9,1.3,58.6,0,87.5-3.3,7.8-26.3,6-33.8,6.2-64.6,2.1-97.9-20.1-94.5-89.5,3.3-67.6,51.2-75.7,108.6-72.5,3.9.2,15.4.8,17,4s-1.1,16-1.8,19.2c-2.7,12.8-4,9-14.2,8.8-34.7-.9-67.7-6.8-70.5,38.4s.7,47.3,20.8,56.3,12.5,4.2,14.8,4.2h17c.1,0,1.5-1.4,1.5-1.5v-33.5Z" fill="#fefefe"/>
        <path d="M232,119v125.5c0,2-3.3,4.3-5.5,4.5-3.7.5-27.7.3-29.3-1.3s-.8-1.6-1-2.5l-.2-151.8c.5-2.5,2.9-4.6,5.4-4.6,37.3,2.5,107.2-13.6,111.6,41.5,1.5,19.1-3.3,32-17.6,44.5-1.8,1.5-7.6,4-7.3,6.3l36.9,62.3c.3,1.8-.2,4-2,4.9s-28.8,1-32.5.5-6.1-2.9-8.5-6.5c-7.6-11.4-25-41.9-29.8-54.2s-2.1-4-1.9-6.6,3.7-16.9,4.9-19.1c3.3-5.9,14.2-3.2,19.4-12.6s4.1-22.7-4.2-27.9-6.8-3.2-7.8-3.2h-30.5Z" fill="#fefefe"/>
        <path d="M106.8,88.3c15-1.4,40.7-1.3,55.4,1s4.9.7,6.1,3-2.4,25-4.9,26.7c-3.7,2.6-24-.8-29.9-1-12.9-.4-38.6-2.5-37.6,16.5s8.5,12.2,16.3,14.8c29.3,9.9,63.2,10.8,62.8,52.3s-55.8,50.2-92.6,48.5-16.6-.8-19.9-2.1-2.4-.7-3-2c-1.1-2.2,1.7-21,2.8-24.2s2.7-4.6,6.2-4.6c17.8-.2,35.4,4.9,53.9,1.7s16.1-5.1,15.7-16.4c-.7-17.1-32.6-18.9-45.6-23.5-49.1-17.5-42.4-85.4,14.3-90.7Z" fill="#fefefe"/>
      </g>
    </g>
  </g>
</svg>