<?xml version="1.0" encoding="UTF-8"?>
<svg id="Layer_1" xmlns="http://www.w3.org/2000/svg" baseProfile="tiny" version="1.2" viewBox="0 0 944 175">
  <!-- Generator: Adobe Illustrator 29.7.1, SVG Export Plug-In . SVG Version: 2.1.1 Build 8)  -->
  <g>
    <path d="M943,1c.9,56.6.9,117,0,174h-412l-1-.2.5-174.2c137.6-.4,275.1-.3,412.5.4Z" fill="#919191"/>
    <g>
      <path d="M530,0h414v1c-.3.9-.6.9-1,0h-412s0,174,0,174h-2l1-175Z" fill="#ccc"/>
      <g>
        <rect x="943" y="1" width="1" height="174" fill="#b2b2b2"/>
        <path d="M670,36v34h-33.5c-.1,0-1.5,1.4-1.5,1.5v68c0,.1-1.4,1.5-1.5,1.5h-32c-.1,0-1.5-1.4-1.5-1.5v-67c0-.3-1.3-1.5-1-2.5h-34v-35h102.5c.3,0,1.5,1.3,2.5,1Z" fill="#fefefe"/>
        <path d="M909,70h-33.5c-.1,0-1.5,1.4-1.5,1.5v69.5h-33.5c-.1,0-1.5-1.4-1.5-1.5v-68c0-.1-1.4-1.5-1.5-1.5h-33.5v-34c1,.3,2.2-1,2.5-1h101c.1,0,1.5,1.4,1.5,1.5v33.5Z" fill="#fefefe"/>
        <g>
          <path d="M736,62l1.1-.5c8.4-8.2,17.8-16.9,28.3-26.1,2.1-.4,24.5,21.5,24.6,23.2-8.4,9.4-17.2,18.5-26.4,27.2l-.9,2.3c8.4,9.3,17.1,18.3,26.3,26.8,1.1,1.3,1.9,3.2,0,3.9-4.4,2.6-21.2,22.3-23.4,21.9l-29-27.9-29.2,27.7c-5.8-7.1-17.6-15.1-22.5-22.2-.6-.9-1.4-1.4-.5-2.5l27.5-27.6c.3-1.9-23-23.3-26-26.8l-1-3c6.7-8.4,14.9-16.5,23.4-23.5,2.3.4,22.2,23.6,27.6,26.9Z" fill="#fefefe"/>
          <path d="M736,62c5.7-3.1,24.2-26.4,28.6-27s2.9,0,4,1c6.7,6.6,13.6,13,19.9,20.1,1.3,1.4,4.3.4,1.5,4.5l-26.8,26.9c0,.7,8.5,9.8,9.7,11,2.4,2.5,17.3,15.6,17.7,16.7,1.9,4.7-.9,3.3-1.7,3.7.4-2.3-.7-3.1-2-4.5-7.6-9.2-18.3-16.3-25.1-26l1-3,25.6-25.5c.9-1.2.1-1.6-.5-2.5-1.6-2.3-18.3-19-20.5-20.5s-1.2-1-2-1c-5,2.2-26.3,27.3-28.9,27-.4-.2-.5-.8-.6-.9Z" fill="#afafaf"/>
        </g>
      </g>
    </g>
  </g>
  <g>
    <path d="M530,0c2.3.2,2.7.8.5,1.2l-.5,173.1-1,.7H0V0h530Z" fill="#fefefe"/>
    <g>
      <path d="M122,94c-3.3-16.5-8.5-35.4-10.7-51.8s-.3-4.8-.3-7.2h33.5c.6,0,2.5,2.5,2.4,3.6l10.6,72.4,10.6-75.9c13.4,1.1,30.4-1.9,43.4-.2s2.6.2,3.5,1.5l13.4,74.6c1.1-8.4,1.4-17,2.6-25.4,2-14,4.1-32.5,7.2-45.9s.9-4.8,3.2-4.8h29c.4,0,1.6,1.2,2.5,1.1-2.7,11.8-4.8,23.9-7,35.9-3.2,18.4-6.9,36.8-11,55-.7,2.5-3.1,12.9-4,13.5l-45.4.3c-2.4-.8-3.3-11.2-3.6-13.9-3.1-21.4-6.9-42.6-11.4-63.6-4.1,26-7.9,51.6-11.7,76.8l-46.3.2c-3.4-15.8-6.9-31.3-10.6-46.4Z" fill="#787878"/>
      <path d="M318,141h-34V36.5c0-.1,1.4-1.5,1.5-1.5h31c.1,0,1.5,1.4,1.5,1.5v104.5Z" fill="#787878"/>
      <path d="M202,127l-11.5-60-11.1,73.9h-48.3c-2.8-15.6-5.9-31.3-9-46.9l3.8,9.7c1.4,12,4.1,24.4,7.4,36.1l45.9-.3c1.7-1.2.7-5.9.9-8.1,2.6-23.2,6.5-45.8,9-69s.2-3.1,2-3.5c.2,2,1.6,3.6,2,5.6,3.3,20.9,6.2,41.6,9.1,62.4Z" fill="#a7a7a7"/>
      <path d="M255,127l11-55c-3.3,18.6-5.8,36.9-11,55Z" fill="#dcdcdc"/>
      <g>
        <path d="M409,61c-11-.8-27.8-7.6-37.9-1.4-13.6,8.4,14.9,16.1,19.6,18.2,19,8.6,30.9,23.9,20.8,45.2s-56.3,21.6-78.1,15.1c-2-2.8,2.4-20.4,1.6-25.1.5-.6,12.6,3.3,14.8,3.7,6.3,1.2,26.1,4.4,29.2-2.5s.6-7-3-9.7c-13.3-10.2-40-9-42.9-32.1-4.8-39,42.1-41.3,69.3-37.3s8.1,2.1,8.5,3.5l-1.9,22.4Z" fill="#787878"/>
        <g>
          <path d="M440,39c6.3-7.1,56.4-4.4,57.7-1.5s-1,22.7-2,23.4c-8.4-2.6-36-8.6-40,1.5s1,5.6,3.3,7.6c1.1.8,1.8,1.3,3,2,6.1,2,12.1,4.3,18,7,16.1,6,24.1,17.7,21.7,35.2-4.2,30.9-47.8,30.6-71,26.5-14.5-2.6-10.1-4.5-8.7-16.3s-1.5-11.4,2.4-11.5,10.9,3.4,15.6,4c8,2.2,31.8,4.2,26-10-10.9-11.2-36.8-10.5-43.5-28s1.1-34.5,17.5-40Z" fill="#787878"/>
          <path d="M440,39c17.7-9.4,40.1-5.7,58.9-1.9l-1.9,24.9c-6.2-.9-12.2-3.4-18.5-4s-30.1-1.3-19.5,12c-3.2-2.3-5.6-2.1-3.8-8.3,3-10,32.1-4.5,39.8-1.7,1.7-7.2,2.5-14.5,1.9-21.9-3.2-.4-6.2-1.8-9.4-2.1-14.9-1.4-33.4-1.7-47.5,3Z" fill="#989898"/>
          <path d="M440,117c5.4.7,17.1,1.2,22-.5s4.1-5.3,4-9.5c.4.4,1.4.4,1.8,1.6,3.6,12.3-21.2,12.4-27.8,8.4Z" fill="#c1c1c1"/>
          <path d="M480,79c-7-2.6-11.1-3-18-7,5.8,1.5,13.4,3,18,7Z" fill="#949494"/>
        </g>
      </g>
      <g>
        <path d="M52,35c16-3,33.2-2,48.9,2.1-1,3.8-.2,22.3-1.8,23.4s-12.4-2-15.7-2.4c-7-1-16.9-2.8-22.9,1.8-11.4,8.8,15.3,15.3,20.4,17.6,13,6.1,23.8,14.2,24.2,29.9,1,37.8-50,39.1-75.8,31.7-1.9-.5-5.3.5-6.1-1.9-2.1-6.2,3.3-17.5,1.9-24.4,8.1,2.2,39.3,9.6,44,1.2s-9.3-13-15-15.2c-6.6-2.4-13-5.4-19-9-9.2-7.4-13.1-14.3-12-26.5.9-10.2,6.1-15.1,13-21.5,4.5-3.4,9.8-5.7,16-7Z" fill="#787878"/>
        <path d="M54,99c-8.3-3.2-11.5-3-19-9l19,9Z" fill="#cacaca"/>
        <path d="M52,35l-16,7c.1-.1-.2-1.3.3-1.7,4.1-3.5,10.8-4.4,15.7-5.3Z" fill="#d4d4d4"/>
      </g>
    </g>
  </g>
</svg>