<?xml version="1.0" encoding="UTF-8"?><svg id="a" xmlns="http://www.w3.org/2000/svg" viewBox="0 0 355.43 361.34"><path d="M175.53,251.73c25.58,17.4,8.22,55.51-21.75,49.74-2.2,4.72-3.74,9.95-5.98,14.64-1.54,3.23-2.27,5.99-6.7,5.01-5.11-1.13-27.33-12.58-29.7-12.11-6.42,6.43-12.52,12.1-21.08,15.61-7.07,2.9-17.25,3.61-22.85,8.65s.36,5.25-2.26,9.75c-4.92,4.11-9.5,9.34-14.28,13.47-2.67,2.31-6.13,6.31-9.57,4.29l-34.54-37.46c-.27-.89-.31-1.9-.15-2.81.27-1.55,12.73-13.09,15-15.05.85-.73,5.44-4.63,5.8-4.74,2.56-.75,4.59,1.43,5.47,1.03,1.45-.66,4.86-5.51,5.61-7.16,5.51-12.08,1.34-33.3,2.59-46.91,1.17-12.7,21.7-1.57,21.79,7.16l1.11-.75,24.96-59.79c1.91-3.18,4.29-2.64,7.33-1.75,2.5.73,20.23,8.25,21.36,9.38,3.05,3.04-.77,8.08-.77,12.04.01,15.69,18.71,24.15,30.76,14.27,5.29-4.34,3.86-10.84,11.99-9.02,2.08.47,19.59,7.93,20.96,9.04s2.31,2.42,2.14,4.28c-.3,3.38-8.49,17.08-7.25,19.19ZM122.17,237.62c-8.02-3.04-14.08-14.68-14.27-22.93-.05-2.28,1.43-5.47.42-7.1l-13.12-5.21-22.52,55.48c12.34-6.81,26.26-35.25,40.86-18.2l8.63-2.04ZM171.58,233.95l-12.3-5.24c-7.71,11.39-21.12,15.38-34.1,11.15.14,1.22,1.68,1.01,2.61,2.26,3.67,4.95,1.67,11.33,1.99,11.86.09.15,2.03.91,2.92,1.98,2.38,2.86,2.89,7.54,2.08,11.11-.4,1.75-3.01,3.88-2.73,5.3.16.81,2.75,2.95,3.28,4.96,2.99,11.27-8.79,16.75-15.4,23.65v1.5s20.25,8.63,20.25,8.63c1.38-1.08,5.56-16.35,7.72-18.54,3.21-3.25,7.73.41,11.46.57,15.32.63,25.09-17.09,16.08-29.65-2.77-3.86-10.15-6.38-10.49-9.82-.43-4.41,8.12-17.34,6.64-19.71ZM50.17,252.61v33.38c0,4.77-4.06,13.87-6.88,17.87-.91,1.3-4.5,4.21-4.32,5.28l19.8,20.73c6.7-9.85,19.05-9.69,28.88-13.89,13.57-5.8,26.13-23.39,37.93-32.57,2.12-2.35,1.48-4.8-1.89-4.2-4.52,2.56-12.98,13.92-17.25,15.09-4.85,1.34-7.13-5.21-3.79-8.33l22.89-20.61c1.96-9.01-6.42-.78-9.39,1.86-3.76,3.35-13.54,14.27-16.96,16.04-4.17,2.16-8.08.41-7.48-4.42,2.56-5.4,29.7-26.39,29.73-29.61.03-2.37-2.47-2.16-4.19-1.16-8.34,4.86-18.38,18.72-26.96,24.78-4.67,3.3-9.06.18-7.32-5.05l21.99-20.79c1.9-2.84-.59-5.26-4.17-2.65-8.86,6.47-17.89,17.94-26.62,25.13-4.04,3.32-7.15,5.53-12.8,3.78-9.13-2.82-2.55-17.69-11.21-20.67ZM28.19,311.94c-1.99,2.8-7.85,6.29-9.56,8.49-.54.69-.94,1.22-.61,2.15l26.44,27.47,9.88-8.93.26-1.75-24.65-27.17-1.75-.26Z" style="fill:#fff;"/><path d="M319.23,118.16c-4.86,4.56-17.44-3.95-20.05-8.8l-10.11,55.54c-.39,1.84-3.31,2.85-5.06,2.79-5.49-2.33-19.91-2.17-24.24-5.06-3.16-2.11-1.48-7.49-1.91-10.84-2.15-16.71-25.2-21.46-34.31-6.69-2.01,3.26-1.62,9.15-5.93,9.88-4.89.84-19.75-4.52-25.66-4.79-.76-.44-1.38-1.24-1.72-2.03-1.67-3.86,3.82-20.62,3.17-21.5-28.96-10.78-21.22-52.94,9.67-53.4.91-.6,2.8-16.2,3.86-19.02.8-2.12,2.27-3.39,4.65-3.22l33.63,6.17c8.1-8.27,16.44-16.92,27.51-21.16,6.24-2.39,14.23-2.8,19.65-6.6.83-.58,4.27-3.87,4.4-4.55.42-2.17-2.66-2.69.15-6.65,1.35-1.9,18.19-17.64,19.46-18.05,4.25-1.37,9.03,5.18,12.06,8.28,6,6.15,12.64,13.44,18.37,19.88,1.83,2.06,8.48,9.02,8.61,10.94.11,1.68-.79,2.94-1.84,4.11-2.51,2.81-14.85,14.25-17.69,16.05-4.44,2.82-5.95-.77-7.45-.02-13.43,14.48-5.88,35.7-7.47,53.35-.13,1.48-.69,4.42-1.73,5.39ZM317.65,11.16l-10.97,10.07,26.5,28.06,10.95-10.06-26.49-28.07ZM311.92,108.6c.62-14.83-3.16-31.22,3.11-45.26,1.88-4.2,5.01-7.32,7.29-11.22l-19.02-20.74c-6.76,9.4-17.27,9.33-26.83,12.91-10.74,4.01-30.58,23.28-39.2,32.05-.9.91-1.75,1.84-2.31,3.01l1.23,2.69c.75.5,1.33.1,2.01-.22,3.85-1.79,10.61-10.59,14.44-13.35,5-3.61,10.46.37,7.57,5.32l-24.43,22.84-.03,2.27,2.3,1.22,25.13-22.6c5.27-1.81,8.4,1.84,6.02,6.78l-27.83,25.41c-1.06,1.11-1.17,3.57.51,4.11l2.95-.65c4.97-3.46,25.41-25.75,29.25-26.32s7.01,4.35,4.25,7.32c-4.74,6.35-17.45,13.85-21.2,20.04-1.64,2.71-.85,4.26,2.26,3.82l30.41-28.15c3.67-3.18,10.52-3.25,13.89.36,4.54,4.86.39,15.96,8.23,18.39ZM291.67,101.11c-.14-.18-3.23,2.17-3.75,2.61-6.13,5.21-19.99,21.02-26.58,22.92-5.3,1.52-9.77-.66-12.76-5.12-6.71,3.79-16.16-.23-16.93-8.03-.17-1.72.66-4.88.37-5.68-.66-1.78-4.33-3.05-5.25-7.42-1.39-6.57,3.56-10.34,3.34-11.56-.13-.72-2.4-2.3-3.09-3.69-4.31-8.7,3.04-14.78,9.14-19.66l-21.73-4.12c-.75,5.02-1.36,10.91-2.6,15.77-1.92,7.53-4.66,4.49-10.52,5.23-18.78,2.37-23.55,26.48-7.16,34.9,2.7,1.39,7.81,1.83,8.73,4.82s-2.67,14.68-3.15,18.76c-.09.78-.54,1.3.43,1.9l13.1,2.51c12.19-28.48,52.98-21.51,53.77,9.75l14.15,3.1,10.5-57.01Z" style="fill:#fff;"/><path d="M117.74,51.54c1.87,1.67,19.73-8.98,23.92-7.05,3.38,1.55,9.45,21.67,11.08,26.14-1.1,3.63-4.87,4.15-7.71,6.46-13.52,11.05-6.25,32.33,10.51,33.07,6.62.29,10.24-5.14,14.02,2.44,1.37,2.74,7.94,19.09,8.1,21.23.2,2.71-1.06,3.64-3.21,4.93-2.44,1.47-16.37,5.87-16.9,6.72,4.33,30.75-33.41,45.8-50.86,20.07-5,.27-16.61,7.85-20.72,6.68-1.71-.49-2.9-3.11-3.68-4.61-4.58-8.85-7.1-20.61-11.48-29.77l-10.13-4.12c-8.32-14.59-25-29.95-29.79-45.96-2.49-8.33-1.3-18.77-6.34-25.91-3.64-5.16-5.11-.07-9.26-3.5C13.06,53.23.76,40.5.04,36.07c-.39-2.38,2.1-4.41,3.7-5.77C14.66,21.01,29.54,13.62,40.74,4.3c2.17-1.17,4.6-1.23,6.46.41.99.87,14.12,19.49,14.57,20.68,1.5,3.99-1.72,5.31-.75,7.45.57,1.27,5.72,5.49,7.2,6.35,12.61,7.31,32.58,4.02,45.89,8.11,2.31.71,3.51,1.73,3.63,4.24ZM42.31,14.24l-31.12,22.05,8.24,12,32.24-21.8-9.36-12.25ZM107.17,55.36c-19.29-2.74-41.03-1.22-54.48-17.89l-23.5,16.01c10.43,10.03,6.67,24.94,12.46,37.03l25.57,36.88c1.41,1.15,3.46.35,3.88-1.31.72-2.86-12.24-15.85-12.68-20.17s5.02-6.63,7.92-3.34l18.67,26.34c1.2,1.51,3.78.22,4.06-1.29.36-1.88-17.12-24.22-19.07-27.98-1.08-3.16.48-6.33,3.81-6.73,1.85,0,3.69,2.02,4.86,3.34,7.54,8.51,13.6,21.07,21.01,30.01,1.36.91,2.58,0,3.42-1.16l-.03-2.2-21.44-30.36c-2.6-4.47,1.75-9.26,6.35-6.35l18.4,25.11,2.72-.41-.06-3.01c-6.23-11.02-17.5-22.12-23.17-33.09-2.35-4.54-3.42-9.88,1.55-13.33,5.23-3.63,9.16-.75,14.38-2.12.79-.21,6.85-2.82,5.38-3.98ZM80.17,137.11l9.73,24.43c5.08-.04,15.25-7.19,19.85-6.44,2.82.46,3.92,4.88,5.69,7.11,2.42,3.07,6.34,6.3,10.28,6.97,14.92,2.51,23.9-7.37,22.64-21.88-.24-2.77-2.86-4.7.03-7.6,2.66-2.66,17.35-6.05,18.47-7.82l-4.93-13.2c-30.87,4.59-45.58-33.6-19.57-51.02l-5.16-12.73-1.02-.23c-12,4.32-23.45,10.12-35.47,14.07-1.03.87-7.82-1.22-7.78.46.06,2.29,21.57,29.15,23.85,33.89,2.55,4.24,2.24,10.55-1.36,14.11-1.26,1.24-3.59,1.77-3.71,1.94-.21.28.86,4.79.53,6.88-.77,4.86-5.12,9.06-10.04,9.52-2.69.25-5.49-1.53-6.56-1.32-.94.19-2.03,2.1-3.21,2.75-4.5,2.47-7.69,1.69-12.26.12Z" style="fill:#fff;"/><path d="M263.96,201.57c4.93.19,20.48-5.53,23.55-1.43,2.74,3.67,2.66,22.05,5.33,27.67,9.62,15.23,27.94,32.71,32.22,50.28,1.42,5.83,2,22.95,7.87,25.92,1.36.69,5.14-1.79,6.81.65,2.69,5.31,14.29,17.21,15.36,22.17.33,1.53-.24,2.95-1.22,4.1l-40.99,28.79c-3,.93-4.84-1.64-6.52-3.68-1.91-2.32-12.28-16.8-12.84-18.65-1.63-5.4,3.89-5.12-2.24-10.52-5.12-4.51-12.37-6.22-18.94-7.31s-30.02-2.02-33.58-4.67c-1.8-1.34-2.33-4.09-1.09-6.03l-29.04,5.02-4.53-3.33c.23-6.52-5.01-19.37-3.79-25.14.79-3.71,6.92-3.75,10.14-5.65,15.44-9.11,9.52-33.14-9.27-34.61-2.85-.22-5.69,2.16-8.09-1.59-.84-1.31-4.69-22.14-4.74-24.56-.15-7.45,16.37-6.06,21.62-7.98,1.52-6.55,2.44-11.84,6.72-17.28,13.49-17.12,40.78-12.79,47.27,7.82ZM280.42,208.36c-1.13-1.17-17.42,3.84-21.03,2.68-3.2-1.02-3.01-5.64-4.33-8.44-7.63-16.18-32.15-12.47-35.04,4.97-.56,3.36,1.05,8.59-1.41,10.6-2.72,2.21-18.94,2.56-20.36,4.41l1.97,13.49c30.89.58,38.92,43.03,9.77,53.35l2.19,14.94,30.93-5.43c6-4.33,12.06-4.78,19.31-4.32l-24.13-34.74c-2.34-3.94-1.98-9.3.89-12.88,1.08-1.35,3.84-2.84,4.13-3.34.21-.36-.69-5.79-.03-8.31,1.04-3.94,5.7-7.36,9.76-7.54,2.18-.09,5.17,1.08,6.59.7.87-.23,2.21-1.93,3.5-2.56,5.39-2.64,10.92-1,14.78,3.35l5.17-2.88-2.65-18.04ZM248.18,308.1c19.01,2.25,41.68.91,54.36,17.82l22.84-16.04c-1.36-3.86-4.58-6.78-6-11.11-1.72-5.28-1.46-10.96-2.54-16.21-3.51-16.97-20.52-32.46-29.41-47.12l-2.55.24c-.95.81-.84,1.79-.56,2.86,1.13,4.3,12.31,14.74,12.6,18.98.31,4.53-5.43,6.48-8.24,2.95l-18.33-25.92c-2.88-2.15-5.58.37-3.3,3.3l18.3,25.96c1.58,4.23-2.49,7.43-6.41,5.65-4.42-3.22-21.37-31.72-23.75-32.51-.95-.32-2.31-.25-2.93.62l.06,3.01c2.74,5.82,22.09,28.32,22.16,32.64.07,3.8-3.88,6.19-7.1,4.06l-17.84-25.26-3.3.55.25,3.6c6.35,10.65,17.41,21.75,22.99,32.51,2.53,4.89,2.91,10.63-2.62,13.75s-15.92-1.78-18.68,5.68ZM303.68,335.87l7.88,11.98,2.1.67,30.38-22.03-9.17-12.35-31.19,21.73Z" style="fill:#fff;"/></svg>