<?xml version="1.0" encoding="UTF-8"?>
<svg id="Layer_1" xmlns="http://www.w3.org/2000/svg" version="1.1" viewBox="0 0 210.3 99.4">
  <!-- Generator: Adobe Illustrator 29.7.1, SVG Export Plug-In . SVG Version: 2.1.1 Build 8)  -->
  <g id="Livello_2">
    <g id="Ebene_1">
      <path d="M84.9,39.4h4.2l7.2,25.2h0l7.6-25.2h3.9l-9.7,30.9h-3.9l-9.4-30.9Z" fill="#adadad"/>
      <path d="M114.3,38.5v4.4h-4.1v-4.4h4.1ZM110.4,47.8h3.7v22.6h-3.7v-22.6Z" fill="#adadad"/>
      <path d="M120.8,49.3c1.9-1.2,4.1-1.8,6.4-1.9,2.2,0,4.3.7,6,2.1,1,1,1.9,2.3,1.9,5.5v11.8c0,1.2,0,2.3.2,3.4h-3.4l-.2-3h0c-1.3,2.2-3.8,3.5-6.3,3.4-3.7,0-6.5-2.2-6.5-6.5s2.9-7.6,10.6-7.6h2.2v-1c.1-1.3-.2-2.6-.8-3.6-.9-1-2.3-1.6-3.7-1.5-2.2,0-4.3.8-5.8,2.3l-.4-3.5ZM131.6,59.3c-.9,0-1.7,0-2.6,0-4.4,0-6.5,2.1-6.5,4.7s1.2,3.9,3.8,3.9,5.3-2.6,5.3-5.7v-2.8Z" fill="#adadad"/>
      <path d="M158.8,39.4l10.1,30.9h-4.1l-2.5-8.1h-11.8l-2.5,8.1h-3.9l10.4-30.9h4.2ZM161.3,58.9l-4.7-15.4h0l-4.9,15.4h9.7Z" fill="#adadad"/>
      <path d="M172.3,37.1h3.7v33.2h-3.7v-33.2Z" fill="#adadad"/>
      <path d="M191.8,70.1c-1,.3-2.1.5-3.1.6-3.4,0-5.2-1.4-5.2-5.4v-14.5h-3.6v-3h3.6v-4.6l3.7-1.1v5.7h4.6v3h-4.6v13.3c0,2.6.7,3.5,2.3,3.5.8,0,1.6-.2,2.3-.6v3Z" fill="#adadad"/>
      <path d="M195.8,49.3c1.9-1.2,4.1-1.8,6.4-1.9,2.2,0,4.3.7,6,2.1,1,1,1.9,2.3,1.9,5.5v11.8c0,1.2,0,2.3.2,3.4h-3.4l-.2-3h0c-1.3,2.2-3.8,3.5-6.3,3.4-3.7,0-6.5-2.2-6.5-6.5s2.9-7.6,10.6-7.6h2.2v-1c.1-1.3-.2-2.6-.8-3.6-.9-1-2.3-1.6-3.7-1.5-2.2,0-4.3.8-5.8,2.3l-.4-3.5ZM206.6,59.3c-.9,0-1.7,0-2.6,0-4.4,0-6.5,2.1-6.5,4.7s1.2,3.9,3.8,3.9,5.3-2.6,5.3-5.7v-2.8Z" fill="#adadad"/>
      <path d="M42.4,75h1.7l4.5,16.2h0l4.9-16.2h1.6l-5.8,18.5h-1.5l-5.6-18.5Z" fill="#adadad"/>
      <path d="M64.5,90.5c0,1,0,2,.2,3h-1.4v-1.9h-.1c-.7,1.4-2.2,2.2-3.8,2.1-2.1,0-3.8-1.8-3.8-3.9,0,0,0,0,0,0,0-4.3,4.6-4.4,6.5-4.4h1c0-1.7,0-4.1-2.8-4.1-1.3,0-2.5.6-3.4,1.4l-.3-1.6c1.1-.7,2.4-1.2,3.7-1.2,4.2,0,4.2,3.5,4.2,4.5v6.2ZM63.1,86.7c-3.2,0-5.9,0-5.9,3.1,0,1.4,1.1,2.5,2.4,2.5,0,0,0,0,0,0,.7,0,3.4-.3,3.4-4v-1.6Z" fill="#adadad"/>
      <path d="M68.2,73.6h1.5v19.9h-1.5v-19.9Z" fill="#adadad"/>
      <path d="M73.6,73.6h1.5v19.9h-1.5v-19.9Z" fill="#adadad"/>
      <path d="M79.8,87.3c0,5,3.2,5,3.8,5,1.1,0,2.1-.4,2.9-1.1v1.8c-.9.5-2,.8-3.1.8-5.3,0-5.3-5.6-5.3-6.9,0-5.1,2.5-7,4.8-7,3.9,0,4.3,4.2,4.3,7.4h-7.5ZM85.6,85.8c0-3.6-1.5-4.6-2.8-4.6-2.1,0-3.1,2.8-3.1,4.6h5.8Z" fill="#adadad"/>
      <path d="M90.2,84.2c0-1.4,0-2.8,0-4.2h1.4c0,.6,0,1,.1,2h0c.5-1.3,1.7-2.2,3.1-2.2,1.4-.1,2.8.8,3.1,2.2.7-1.3,1.9-2.1,3.4-2.2,2.7,0,3.5,2.3,3.5,4.4v9.3h-1.5v-9.1c0-.9,0-3.2-2.2-3.2s-2.8,1.7-2.8,3.6v8.7h-1.5v-9.4c0-1.7-.8-2.9-2-2.9-1.7,0-2.9,1.8-2.9,3.9v8.4h-1.6v-9.3Z" fill="#adadad"/>
      <path d="M116.6,90.5c0,1,0,2,.2,3h-1.4v-1.9h-.2c-.7,1.4-2.2,2.2-3.8,2.1-2.1,0-3.8-1.8-3.8-3.9,0,0,0,0,0,0,0-4.3,4.6-4.4,6.5-4.4h1c0-1.7,0-4.1-2.8-4.1-1.3,0-2.4.6-3.4,1.4l-.3-1.6c1.1-.7,2.4-1.2,3.7-1.2,4.2,0,4.2,3.5,4.2,4.5v6.2ZM115.2,86.7c-3.2,0-5.9,0-5.9,3.1,0,1.4,1.1,2.5,2.4,2.5,0,0,0,0,0,0,.7,0,3.4-.3,3.4-4v-1.6Z" fill="#adadad"/>
      <path d="M124,79.8c1.5,0,2.9.8,3.5,2.2h0v-2h1.5c0,1.2-.1,2.4-.1,4.5v8.7c0,3.8-1.5,6.2-5.1,6.2-1.3,0-2.6-.3-3.8-.7v-1.7c1.3.6,2.5,1,3.8,1,3.3,0,3.5-3.1,3.5-4.4v-1.8h0c-.6,1.3-2,2.1-3.4,2-3.4,0-4.5-3.9-4.5-6.4,0-1.8.1-7.4,4.5-7.4ZM124.2,92.3c2.5,0,3.3-2.2,3.3-5.7s-.7-5.4-3.3-5.4-3.1,4.4-3.1,5.5c0,3.1.8,5.5,3.1,5.5h0Z" fill="#adadad"/>
      <path d="M136.3,79.8c1.5,0,2.9.8,3.6,2.2h0v-2h1.4c0,1.2-.1,2.4-.1,4.5v8.7c0,3.8-1.5,6.2-5.1,6.2-1.3,0-2.6-.3-3.8-.7v-1.7c1.2.6,2.5,1,3.8,1,3.3,0,3.6-3.1,3.6-4.4v-1.8h0c-.6,1.3-2,2.1-3.4,2-3.4,0-4.5-3.9-4.5-6.4,0-1.8.2-7.4,4.6-7.4ZM136.4,92.3c2.5,0,3.3-2.2,3.3-5.7s-.7-5.4-3.3-5.4-3.1,4.4-3.1,5.5c0,3.1.8,5.5,3.1,5.5Z" fill="#adadad"/>
      <path d="M144.7,74.6h1.8v2.4h-1.8v-2.4ZM144.8,80h1.5v13.5h-1.5v-13.5Z" fill="#adadad"/>
      <path d="M158.3,90.5c0,1,0,2,.2,3h-1.4v-1.9h-.2c-.7,1.4-2.2,2.2-3.8,2.1-2.1,0-3.8-1.8-3.8-3.9,0,0,0,0,0,0,0-4.3,4.6-4.4,6.5-4.4h1c0-1.7,0-4.1-2.8-4.1-1.3,0-2.4.6-3.4,1.4l-.3-1.6c1.1-.7,2.4-1.2,3.7-1.2,4.2,0,4.2,3.5,4.2,4.5v6.2ZM156.9,86.7c-3.2,0-5.9,0-5.9,3.1,0,1.4,1.1,2.5,2.4,2.5,0,0,0,0,0,0,.7,0,3.4-.3,3.4-4v-1.6Z" fill="#adadad"/>
      <path d="M83.5,16.9c-.4.5-2.7-.7-2.7-.7-.2,0-.3,0-.5,0-.3.1-1.1-.2-1.1-.2,0,0,0,0-.1,0,.5-.8,1-1.8,1-1.8.2-2.3-4.7-4.8-5.7-4.6-.8,0-1.5-.2-2.2-.5-.2,0-1.7.3-1.7.3-.6.1-1.8,1.6-1.8,1.6-.3-.1-.3-.9-1-.8.5-.6,3-4.4,3-4.4,2.4-3.6-5.2-4.9-5.2-4.9-.4.5-2.7-.7-2.7-.7-.2,0-.3,0-.5,0-.3.1-1.1-.2-1.1-.2-.6-.3-2.6.8-2.6.8-.8.2-1.3.9-1.3,1.7,0,1.1-.7.8-.7.8v.2c-1,.1-1.8,2.4-1.8,2.4-.2,1-.7,2-1.5,2.7-.6.7-1.5,1.4-1.3,2.8,0,.4,0,.8-.2,1.1-.6-.1-1-.2-1-.2-.3.5,0,.8-.5.3-.7-.5-1.4-.8-2.2-1.1-.2,0-.3,0-.5,0-.2,0-.4,0-.6,0,0,0,0-.2.2-.1s1.8-2.8,1.8-2.8c2.4-3.6-2.2-4.1-2.2-4.1-.8.4-3.4-.4-3.8-.8-.6-.4-1.2-.6-1.8-.7-.2,0-.3,0-.5,0-.3.1-1.1-.2-1.1-.2-.6-.3-3,.4-3,.4-.6.1-.7,1.4-.9,2.2-.2,1-.6.9-.6.9h-.2c-.9.2-1.7,2.5-1.7,2.5,0,.5-.3.9-.5,1.3-1.4-.6-2.9-1-4.4-1.3-.4.5-1.7-.5-1.7-.5-.2,0-.3,0-.5,0-.3.1-1.1-.2-1.1-.2-.6-.3-3,.4-3,.4-.8.4-1.1,1.3-.9,2.1.4,1-.6.8-.6.8l-.2.2c-.9.1-1.7,2.4-1.7,2.4-.2,1-.7,2-1.5,2.7-.6.7-1.5,1.4-1.3,2.8s-1.9,3-1.6,3.5-1.6,2.1-2,2.9c-.5.9-.6,2-.3,3,.2.8,0,1.6-.6,2.2-1,.7-1.9,1.7-2.5,2.9-1.4.1-2.4,1.3-2.3,2.7,0,.2,0,.5.2.7-1.6,1.9-2,1.6-.9,3.1,0,.5,0,1.1-.4,1.4-.4.3,0,1.2,0,1.2-.4,1.1-1.3,1.9-2.3,2.5-1.2,1,0,2.9-.7,3.4S.1,54.7,0,55.1c-.6,4.4,3.5,5.9,3.9,6.9.4.9,3.2,2.1,4.4,2,.4-.9,0-2,.8-2.4s.6-3.3,1.9-4.2c0,0,2.2-.5,1.4-1.5.1-.5.4-1,.7-1.5.3-.3.4-.7.3-1.1.3-1.1.8-2.2,1.6-3,.8-.6,1.3-1.3,1.6-2.2,0,0,1-3.1,2.4-3.8,0,0,.2-.2,0-1.4s.5-2,.9-2.7,2.8-3.4,2.6-3.9,2-2,1.8-3.4.8-2.1,1.5-2.7c.8-.7,1.4-1.6,1.7-2.6,0,0,.9-2.3,1.8-2.3l.9-.2s.7,0,0-.8c-.5-.6.4-2,1-2.1,0,0,2.5-.5,3.1-.2,0,0,.8.4,1.1.3.2,0,.3,0,.5,0,0,0,2.2.3,2.3,1s6.8-.8,3,3.8c0,0-.8,1.3-1.1,1.2s-1.2,1.9-.9,2-.2.6-.4.9-.2.6-.4.7-1.5,2.3-1.8,2.4c-.4,0-.8.4-.8.8-.1.4-.4.8-.8,1-.2.2.4,1.7,0,1.9s-.8,1.3-1.4,1.3-.3,1.9-.7,2.1c-.9.5-1.5,1.4-1.5,2.5.2.3-.6,1.2-.9,1.3s-1.1,1-.9,1.3c0,.9-.2,1.8-.7,2.6-.4.5-.8,2.9-1.8,3.6-.4.4-.7.8-.9,1.3,0,0-3,5.3-2.4,5.8s.4,2.2,0,2.8c0,.1-.2.3-.3.4,1,1,2.1,1.6,2.3,2.1.4,1,3.9,2.3,4.7,1.9,1.4-.6,2.9-.9,4.5-1,.5.2,1.5-1,1.5-1l.4-1.1s1.9-2.8,1.3-3.4.9-1.3,1-1.2,3,.5,5.8,1.2c.2-.3.4-.6.6-.9,0,0,.6-.3.8-1.8,0,0,0-3.7,1.4-4.5,0,0,1.6-.6,1.2-1.7s.5-2.9.8-3.6,2.1-2.5,1.8-3,1.8-2.1,1.5-3.5.6-2.1,1.2-2.8c.8-.8,1.3-1.7,1.4-2.8,0,0,.7-2.3,1.6-2.5,0,0,.9.4.8-1.1,0-.8.2-2,.8-2.2.9-.4,2-.6,3-.5,0,0,.8.3,1.1.2.2,0,.3,0,.5,0,.9.3,1.8.6,2.7.6,0,0,4-.5,3.1,3.6,0,0-2,2.8-1.7,3.3.1.3-.1.6-.3.9s-.1.6-.4.7-1.3,2.5-1.6,2.6c-.4,0-.7.5-.7.9,0,.4-.3.8-.7,1.1-.2.2.6,1.1.1,1.3s-1,2.6-1.6,2.7.3,1.5-.1,1.4-1.5,2.3-1.3,2.6-.5,1.3-.8,1.4-1,1-.8,1.4c0,.9,0,1.8-.5,2.7-.3.5-.7,3.6-1.6,4.4,0,0,.2.5,0,.2,0,0-.4-.3-.7.6,0,0-1,2.2-1.6,4,1,2,3.1,2.9,3.4,3.6.4,1,3.9,2.3,4.7,1.9,1.4-.6,2.9-.9,4.5-1,.4.2,1.5-1,1.5-1l.3-1.1c.4-.8.6-1.6.7-2.4.1-.7.5-1.4,1-1.9.5-.5.7-1.2.6-1.9-.1-.5.9-2.1,1-2.8.3-2.1.4-2.3.2-2.4-.6-.5,2.1-7.3,2.1-7.3.3-.9.6-.7.6-.7,1-.7,1.5-3.8,1.8-4.3s-.1-2.7-.3-3.1.6-.8.8-.9c1.6-.8,2-3,2.4-3.2.5-.6.7-1.4.5-2.1-.3-.6,1.1-1,.5-2-.3-.4.3-1,.8-1.2s-.3-1,0-1.2c.4-.2.7-.6.7-1.1,0-.4.3-.8.7-.9.6-.4,1.2-.9,1.8-1.4.4-.5.8-1,1.2-1.5.2-.2.6-.8.3-.9s-.2-.6,0-.5,1.8-2.8,1.8-2.8c2.4-3.6-5.2-4.9-5.2-4.9Z" fill="#adadad"/>
      <path d="M41.8,38.9c.6,0,1.1.2,1.5.5.5.5,1.2.6,1.9.4,0,0,6.9,1.1,4.5,4.7,0,0-1.5,2.9-1.8,2.8s-.3.4,0,.5-.1.6-.3.9-.2.6-.4.7-2.3,2.1-2.6,2.1c-.4,0-.8.4-.7.9,0,.4-.3.8-.7,1.1-.2.2.6,1.5,0,1.7s-1.3.6-.8.7c1.4.2-1.4,1.7-.8,2s1,1.5.6,1.4-1.6,2.8-3.2,3.5c-.3.1-1,1-.8,1.4.2.4.6,2.6.3,3.1s-.8,3.6-1.8,4.3c0,0-.3-.2-.6.7,0,0-2.7,5.5-2.1,6s.5,2.2.1,2.8-.9,1.8-.3,1.7-.8,3.6-.9,3.6-1.6.7-1,1.2c.6.6-1.3,3.4-1.3,3.4l-.4,1s-1,1.2-1.5,1c-1.5,0-3,.4-4.5,1-.9.4-4.3-.9-4.7-1.9s-4.5-2.5-3.9-6.9c0-.3,1.9-5.1,1.7-4.9.6-.6-.6-.2.2-.7s.4-3.3,1.6-4.3c0,0,2.1-.6,1.3-1.6,0,0,.2-1.2.6-1.5.3-.3.4-.7.2-1.1.2-1.1.7-2.2,1.4-3.1.7-.6,1.2-1.4,1.5-2.3,0,0,.8-3.1,2.2-3.9.5-.6.7-1.4.6-2.2-.2-1-.1-2.1.3-3,.3-.8,2.2-2.4,1.9-2.9s1.9-2.1,1.7-3.5.7-2.1,1.3-2.8c.8-.7,1.3-1.7,1.5-2.7,0,0,.8-2.3,1.7-2.4l.6-.2s.2,0,.3-.8.3-2,.9-2.2c0,0,2.4-.7,3-.4,0,0,.8.3,1.1.2.2,0,.3,0,.5,0Z" fill="#b5b5b5"/>
    </g>
  </g>
</svg>